<?xml version="1.0" standalone="no"?>
<!DOCTYPE svg PUBLIC "-//W3C//DTD SVG 20010904//EN"
 "http://www.w3.org/TR/2001/REC-SVG-20010904/DTD/svg10.dtd">
<svg version="1.0" xmlns="http://www.w3.org/2000/svg"
 width="625.000000pt" height="550.000000pt" viewBox="0 0 625.000000 550.000000"
 preserveAspectRatio="xMidYMid meet">

<g transform="translate(0.000000,550.000000) scale(0.100000,-0.100000)"
fill="#000000" stroke="none">
<path d="M2807 5309 c-10 -6 -31 -7 -48 -4 -17 4 -35 2 -43 -4 -7 -6 -26 -13
-42 -15 -52 -6 -118 -43 -209 -117 -133 -107 -210 -179 -241 -224 -32 -48 -71
-148 -78 -201 -3 -22 -10 -64 -17 -94 -15 -71 -6 -380 16 -505 9 -49 20 -114
25 -144 15 -84 12 -129 -10 -159 l-20 -27 49 -155 c27 -85 57 -184 65 -220 25
-99 116 -275 185 -357 32 -39 67 -85 76 -103 18 -35 45 -163 45 -214 0 -32 -2
-33 -55 -45 -43 -10 -65 -22 -104 -60 -48 -46 -53 -48 -118 -53 -56 -5 -88
-15 -185 -62 -65 -31 -118 -61 -118 -65 0 -5 -11 -6 -25 -3 -13 2 -68 -10
-122 -27 -54 -17 -156 -49 -228 -72 -71 -22 -148 -49 -170 -59 -43 -21 -149
-54 -205 -66 -69 -14 -143 -77 -169 -145 -53 -140 -87 -200 -146 -261 -34 -35
-105 -124 -159 -198 -54 -74 -110 -145 -125 -157 -31 -24 -101 -139 -122 -197
-8 -22 -35 -63 -62 -92 l-47 -52 0 -304 c0 -223 3 -307 12 -316 9 -9 9 -12 0
-12 -9 0 -12 -33 -12 -120 l0 -120 191 0 c109 0 188 4 185 9 -3 5 6 12 22 17
42 12 102 13 102 2 0 -5 9 -7 19 -3 12 4 23 0 28 -10 13 -23 344 -18 351 5 4
12 2 12 -8 3 -10 -9 -20 -8 -44 4 -17 10 -39 16 -48 14 -13 -1 -15 3 -10 21 5
20 3 21 -10 10 -18 -15 -34 0 -22 20 5 7 3 8 -5 4 -7 -5 -10 -14 -7 -22 3 -7
1 -16 -4 -19 -6 -4 -10 -1 -10 6 0 7 -10 23 -21 35 -19 20 -23 21 -36 8 -8 -8
-20 -11 -26 -7 -19 12 -36 12 -43 2 -3 -6 -12 -5 -22 3 -12 10 -16 10 -19 1
-3 -7 -9 -13 -15 -13 -6 0 -8 7 -5 15 4 8 2 17 -3 20 -6 4 -10 -1 -10 -9 0 -9
-6 -13 -14 -10 -8 3 -16 -2 -19 -13 -5 -14 -5 -14 -4 3 1 11 -4 28 -12 38 -8
9 -11 20 -7 23 4 4 11 1 16 -7 7 -11 10 -12 10 -2 0 7 4 10 10 7 7 -4 7 2 1
19 -12 31 5 48 39 39 16 -4 21 -3 16 5 -4 7 -4 18 0 24 11 18 12 48 2 48 -4 0
-8 22 -8 49 0 27 -4 51 -10 53 -5 2 -12 32 -15 68 -7 97 -8 100 -25 101 -10 0
-9 3 5 9 17 7 17 9 3 9 -10 1 -18 8 -18 16 0 8 -13 24 -30 36 -16 12 -27 26
-24 31 3 4 1 8 -5 8 -6 0 -8 7 -5 15 4 8 1 15 -6 15 -7 0 -10 7 -6 15 3 8 -4
21 -16 29 -15 11 -22 27 -22 51 -1 19 -5 35 -9 35 -4 0 -7 20 -6 44 2 25 -3
51 -9 59 -10 12 -10 16 2 20 9 4 12 14 9 26 -3 12 -3 21 -1 21 8 0 51 -40 45
-41 -4 -1 -11 -3 -17 -4 -5 -1 -13 -3 -17 -4 -5 -1 3 -9 17 -19 27 -18 31 -28
34 -85 1 -20 7 -42 14 -49 7 -7 12 -19 12 -28 0 -13 -1 -13 -10 0 -6 9 -10 10
-10 3 0 -6 5 -15 11 -18 6 -4 8 -13 5 -20 -2 -7 2 -16 9 -19 8 -3 20 -25 26
-50 8 -34 15 -43 28 -39 12 4 13 3 2 -5 -9 -7 -10 -12 -2 -16 13 -8 33 2 27
13 -3 4 -1 25 5 45 8 27 7 41 -1 52 -10 11 -9 15 2 19 15 6 21 35 7 35 -4 0
-5 9 -2 20 5 17 7 18 17 6 10 -13 13 -13 24 0 11 12 10 15 -2 20 -15 6 -16 20
-3 42 5 6 5 12 0 12 -4 0 -9 15 -10 33 -2 30 -10 72 -13 72 -1 0 -3 30 -6 66
-4 52 -2 68 10 79 19 15 21 40 4 41 -7 0 -4 4 7 9 11 5 15 9 8 9 -6 1 -11 10
-10 21 1 22 13 27 20 8 2 -7 8 -10 12 -6 4 4 2 15 -6 24 -11 14 -11 18 6 30
10 8 24 14 29 14 6 0 3 -5 -7 -11 -17 -10 -17 -11 1 -28 22 -18 31 -50 19 -67
-4 -7 0 -11 11 -10 11 1 16 -5 14 -17 -2 -9 1 -17 6 -17 5 0 8 -14 7 -30 -1
-23 2 -30 13 -25 10 3 12 0 8 -10 -3 -8 -1 -15 5 -15 6 0 9 -7 5 -15 -3 -8 -1
-15 4 -15 6 0 10 5 10 10 0 6 4 10 8 10 5 0 8 -10 8 -22 -1 -13 4 -22 10 -21
7 1 14 -11 18 -27 3 -18 12 -30 21 -30 8 0 15 -9 15 -19 0 -10 7 -22 16 -25
10 -4 13 -13 9 -26 -4 -11 -2 -20 4 -20 6 0 8 -7 5 -15 -4 -8 -1 -15 5 -15 6
0 10 -3 10 -7 -4 -23 2 -43 11 -38 7 4 8 -3 4 -20 -4 -18 -2 -30 6 -35 7 -4 9
-13 6 -19 -4 -6 -13 -8 -19 -4 -8 4 -7 1 1 -9 7 -9 9 -19 4 -22 -5 -3 -8 -13
-7 -23 5 -45 55 -120 73 -110 13 9 20 86 8 90 -5 2 -1 10 8 19 13 14 15 33 11
110 -2 51 -11 120 -20 152 -8 32 -13 61 -11 63 3 3 12 -19 20 -48 32 -115 38
-181 31 -360 -6 -151 -10 -179 -26 -200 l-20 -24 12 27 c9 22 9 30 -3 42 -8 8
-21 28 -28 45 -7 17 -18 31 -25 31 -7 0 -18 7 -26 16 -7 8 -21 13 -31 10 -15
-3 -17 -1 -9 8 8 9 7 13 -4 13 -8 0 -15 -5 -15 -11 0 -6 -5 -4 -10 6 -6 10
-18 14 -30 11 -21 -6 -27 -28 -10 -38 6 -3 10 -15 10 -27 0 -14 -5 -18 -15
-14 -10 4 -7 -6 10 -28 27 -36 31 -46 15 -46 -5 0 -10 8 -10 18 0 15 -2 15
-11 2 -9 -13 -10 -13 -6 0 2 8 -7 23 -20 33 -23 19 -43 16 -43 -7 0 -7 -7 -21
-15 -32 -13 -18 -14 -18 -8 5 3 12 2 26 -3 30 -20 14 -54 94 -45 105 6 7 4 18
-6 31 -14 18 -15 18 -9 1 3 -10 2 -24 -4 -31 -13 -16 -10 -36 10 -53 8 -8 10
-11 4 -8 -14 7 -26 -18 -18 -39 8 -20 21 -19 34 2 8 14 9 12 4 -11 -5 -21 -4
-27 5 -22 7 4 11 0 11 -11 1 -22 20 -47 40 -52 56 -14 63 -14 57 3 -4 9 -2 16
4 16 7 0 9 -12 7 -30 -5 -35 11 -52 48 -53 18 0 22 -2 13 -8 -11 -6 -10 -9 3
-14 10 -4 22 -4 28 0 13 8 13 35 0 35 -5 0 -10 8 -10 17 0 15 2 14 19 -3 13
-14 16 -25 10 -41 -4 -12 -4 -36 2 -55 19 -61 19 -70 4 -64 -8 3 -17 0 -21 -6
-5 -7 -12 -5 -21 7 -15 21 -18 8 -3 -15 5 -8 12 -11 16 -7 9 9 35 -13 28 -24
-3 -5 6 -13 20 -18 22 -9 43 -44 38 -63 -1 -5 264 -8 588 -8 l591 0 -5 47 c-5
42 -16 73 -16 45 0 -7 -5 -12 -11 -12 -5 0 -8 4 -5 8 3 5 -2 22 -10 37 -8 16
-13 37 -11 47 3 9 -2 26 -9 37 -9 12 -12 31 -8 48 4 22 3 25 -5 13 -6 -8 -11
-13 -12 -10 0 3 -3 14 -6 25 -3 11 -7 37 -10 58 -3 20 -9 37 -15 37 -5 0 -6 5
-3 10 3 6 -1 13 -10 16 -12 5 -13 10 -4 20 9 11 8 15 -4 20 -9 3 -13 12 -10
20 7 18 -24 84 -39 84 -9 0 -9 3 -1 11 12 12 0 61 -21 88 -6 7 -9 40 -8 72 2
39 -1 59 -9 59 -7 0 -10 12 -7 30 3 17 0 30 -5 30 -5 0 -7 7 -3 15 3 8 1 15
-4 15 -6 0 -10 5 -10 11 0 5 4 7 10 4 9 -6 8 2 -6 43 -14 39 -15 112 -2 112 8
0 6 5 -4 11 -10 5 -18 14 -18 19 0 5 8 11 18 13 12 3 11 5 -6 6 -16 1 -21 5
-15 14 10 16 4 60 -11 69 -8 6 -7 8 2 8 14 0 10 44 -10 109 -6 19 -12 53 -14
75 -2 23 -6 58 -8 78 -3 25 0 38 10 42 21 8 46 -23 40 -50 -3 -12 -2 -24 3
-26 5 -2 12 -30 16 -63 8 -83 11 -109 14 -115 8 -16 5 -80 -4 -80 -5 0 -3 -5
5 -10 13 -9 13 -11 0 -20 -13 -8 -12 -10 3 -10 11 0 17 -8 18 -22 1 -13 2 -34
3 -48 0 -14 5 -31 10 -39 5 -8 4 -16 -5 -22 -12 -7 -12 -9 0 -9 8 0 12 -3 8
-6 -8 -9 21 -64 34 -64 6 0 6 -6 0 -19 -6 -10 -7 -21 -4 -25 4 -4 9 -19 11
-33 2 -15 8 -36 15 -47 6 -12 10 -27 9 -33 -2 -7 2 -13 8 -13 5 0 10 -5 10
-11 0 -5 -5 -7 -11 -3 -8 4 -8 0 0 -15 7 -12 10 -25 7 -30 -3 -4 2 -17 12 -27
20 -23 25 -40 24 -71 -1 -13 3 -23 8 -23 6 0 10 -8 10 -17 0 -10 6 -30 14 -45
8 -15 12 -36 9 -48 -3 -11 -1 -26 5 -33 6 -6 10 -33 10 -59 0 -27 7 -57 17
-72 11 -17 16 -38 13 -59 -7 -40 -1 -57 17 -51 7 3 16 1 20 -5 3 -7 -2 -11
-14 -11 -12 0 -21 -5 -21 -11 0 -5 3 -8 7 -6 10 6 34 -19 26 -27 -3 -3 0 -13
7 -21 10 -12 10 -21 1 -41 -6 -14 -9 -30 -6 -34 9 -14 1105 -13 1105 0 0 6 -7
25 -17 43 -15 30 -15 31 0 18 10 -7 17 -19 17 -27 0 -7 4 -15 10 -19 5 -3 5 7
-1 25 -6 16 -15 33 -20 36 -5 3 -7 10 -4 15 4 5 2 9 -3 9 -5 0 -12 9 -15 20
-3 13 1 21 14 25 20 7 27 35 9 35 -5 0 -10 7 -10 15 0 8 5 15 12 15 6 0 4 6
-7 13 -11 9 -15 19 -10 27 6 10 4 12 -9 7 -13 -5 -15 -3 -8 11 5 9 8 31 7 47
-3 36 11 56 32 48 11 -4 14 -2 11 8 -3 8 -11 13 -17 12 -6 -2 -11 2 -11 7 0 6
5 10 11 10 8 0 7 6 -2 17 -12 14 -12 16 1 11 11 -4 16 0 16 12 0 10 -3 17 -6
15 -3 -2 -6 5 -6 15 0 12 5 16 16 12 13 -5 13 -3 1 11 -8 11 -9 17 -3 17 6 0
9 7 6 15 -3 8 -2 20 2 27 9 14 12 24 16 53 2 11 6 23 11 26 4 3 10 14 12 25
10 43 28 110 33 124 3 8 4 21 3 28 -1 6 3 12 10 12 6 0 9 7 6 15 -4 8 -2 17 4
20 5 4 7 11 4 16 -4 5 -2 9 4 9 6 0 8 12 5 29 -4 16 -1 32 5 35 6 4 9 12 6 17
-3 5 2 6 11 2 14 -5 16 -2 10 20 -4 18 -2 27 5 27 8 0 7 5 -2 16 -10 12 -10
17 0 23 7 5 13 14 14 22 2 8 7 20 11 28 7 10 5 12 -5 7 -10 -6 -10 -4 1 6 15
13 22 35 22 75 0 13 4 20 9 17 9 -5 12 6 11 41 0 11 3 34 8 50 5 17 12 46 15
65 3 19 10 37 16 38 5 2 9 14 9 27 0 12 7 42 15 66 17 46 34 116 40 159 2 14
8 45 14 70 6 25 11 58 11 73 0 23 -2 26 -14 15 -8 -7 -12 -16 -9 -21 2 -4 -1
-7 -6 -7 -6 0 -11 -7 -11 -15 0 -8 -5 -15 -11 -15 -5 0 -7 -4 -4 -10 8 -13 -1
-13 -26 0 -13 8 -19 7 -19 0 0 -6 7 -13 15 -16 8 -4 15 -11 15 -17 0 -6 -3 -7
-7 -4 -3 4 -12 -1 -20 -11 -13 -16 -14 -15 -8 5 3 12 1 25 -6 29 -8 5 -9 3 -4
-6 4 -7 2 -16 -6 -21 -12 -8 -11 -12 4 -23 10 -8 14 -17 9 -20 -5 -3 -15 1
-22 10 -11 12 -15 12 -21 2 -12 -18 -11 -28 2 -28 5 0 7 5 4 10 -3 6 -2 10 4
10 16 0 24 -22 11 -30 -7 -4 -14 -22 -16 -39 -2 -17 -15 -49 -29 -71 -14 -22
-25 -43 -25 -48 0 -12 -41 -54 -47 -48 -3 3 0 14 8 23 11 14 9 14 -11 -2 -14
-11 -28 -24 -32 -29 -4 -6 -14 -4 -25 5 -16 13 -17 13 -4 -3 9 -13 10 -18 2
-18 -7 0 -9 -5 -6 -10 4 -6 11 -8 16 -5 5 4 9 1 9 -4 0 -6 -5 -11 -11 -11 -6
0 -3 -7 5 -16 18 -17 21 -28 6 -19 -10 6 -27 -9 -72 -63 -15 -18 -30 -28 -33
-22 -3 5 -2 10 3 10 8 0 68 86 73 105 1 6 -3 21 -10 35 -10 22 -11 22 -7 3 5
-27 -9 -46 -54 -72 -42 -24 -120 -61 -129 -61 -7 0 -41 64 -41 76 0 3 7 -1 15
-10 18 -18 46 -11 38 9 -9 26 8 38 28 19 19 -18 27 -50 9 -39 -5 3 -10 1 -10
-5 0 -6 -4 -8 -10 -5 -5 3 -10 1 -10 -5 0 -7 -7 -10 -15 -6 -8 3 -15 1 -15 -4
0 -18 29 -10 99 26 56 29 68 39 64 55 -3 10 0 26 7 34 7 8 9 23 6 32 -6 15 -5
16 5 6 18 -18 34 -16 20 1 -7 9 -8 17 -2 20 5 3 11 3 14 -1 2 -5 2 -3 1 4 -5
20 21 34 36 20 11 -9 10 -7 0 7 -14 18 -13 19 2 13 12 -4 15 -2 11 9 -3 7 0
14 6 14 7 0 26 22 43 50 27 43 33 48 47 37 14 -10 14 -10 3 4 -10 13 -8 22 13
53 14 20 36 51 49 70 17 26 26 32 35 23 8 -8 14 -8 22 0 8 8 6 13 -9 17 -19 7
-19 8 -2 44 9 20 20 62 24 92 11 91 35 218 33 173 -2 -24 1 -43 5 -43 8 0 22
105 15 117 -2 4 -1 17 4 28 8 18 4 -161 -5 -225 -2 -14 1 -33 6 -43 5 -9 5
-17 0 -17 -5 0 -6 -21 -2 -48 4 -26 6 -60 4 -77 -9 -68 -11 -156 -4 -160 4 -3
8 7 8 21 0 13 8 34 18 45 11 12 14 23 9 27 -13 9 -15 42 -3 42 5 0 7 14 4 32
l-6 33 16 -34 c16 -35 14 -94 -4 -141 -5 -14 -7 -30 -5 -37 2 -6 -1 -14 -6
-18 -6 -3 -11 -13 -11 -22 0 -9 -8 -22 -17 -29 -11 -8 -13 -13 -5 -14 6 0 12
-5 12 -11 0 -6 -7 -9 -15 -5 -11 4 -15 -3 -16 -27 -1 -18 -1 -35 0 -39 0 -5
-5 -8 -13 -8 -9 0 -12 -7 -9 -19 3 -10 0 -22 -7 -26 -8 -5 -8 -10 1 -21 9 -11
8 -14 -7 -14 -18 -1 -18 -1 0 -15 19 -15 19 -15 -1 -15 -18 0 -21 -5 -17 -26
3 -14 1 -23 -5 -20 -5 3 -11 -3 -14 -14 -3 -13 0 -20 9 -20 8 0 14 -4 14 -10
0 -5 -6 -9 -12 -7 -8 1 -12 -6 -10 -17 2 -11 -1 -15 -7 -11 -6 3 -11 1 -11 -4
0 -6 6 -11 13 -11 9 0 9 -2 -1 -9 -8 -4 -13 -17 -11 -27 3 -28 -12 -104 -21
-99 -3 2 -7 -1 -8 -8 -8 -75 -16 -107 -23 -95 -6 8 -9 0 -9 -24 0 -24 -5 -38
-12 -38 -10 0 -10 -2 -1 -8 16 -10 13 -52 -4 -52 -16 0 -27 -43 -20 -72 4 -12
1 -28 -5 -35 -7 -9 -7 -13 1 -13 6 0 11 -8 11 -17 -1 -15 -4 -14 -22 7 l-21
25 7 -42 c4 -29 2 -43 -7 -46 -9 -3 -9 -7 2 -20 17 -22 7 -22 -14 -1 -14 15
-15 14 -10 -15 4 -25 2 -31 -12 -31 -16 -1 -16 -2 -2 -10 9 -5 15 -19 13 -32
-1 -13 -3 -27 -3 -32 -1 -4 -9 -5 -18 -2 -15 6 -15 5 1 -13 9 -10 13 -22 8
-25 -5 -3 -7 -17 -4 -31 3 -16 0 -25 -8 -25 -9 0 -10 -10 -6 -35 4 -21 3 -35
-3 -35 -6 0 -8 -7 -5 -15 11 -27 -12 -16 -24 13 l-12 27 6 -30 c6 -32 22 -48
38 -38 5 3 6 1 2 -6 -4 -7 -13 -10 -19 -8 -25 8 -33 -16 -25 -77 11 -76 11
-75 2 -111 -10 -42 -7 -67 8 -76 10 -7 10 -9 1 -9 -7 0 -13 -4 -13 -10 0 -6
380 -10 1105 -10 l1105 1 0 234 c0 150 -4 235 -10 235 -10 0 -14 -14 -11 -39
2 -7 -2 -10 -9 -6 -9 6 -9 2 -1 -13 6 -11 11 -23 11 -26 0 -13 -28 -5 -41 11
-10 11 -10 14 -1 9 7 -4 12 -2 12 7 0 8 -8 18 -17 21 -15 6 -15 8 -3 17 10 7
11 12 4 15 -6 3 -9 16 -6 31 3 18 1 24 -7 19 -6 -4 -11 -1 -11 8 0 8 -3 22 -7
32 -5 13 -3 15 8 9 10 -6 9 -2 -2 11 -19 21 -17 101 3 154 5 13 35 124 46 170
16 72 19 170 4 195 -11 20 -12 19 -18 -2 -3 -13 -11 -20 -17 -16 -6 3 -7 1 -3
-6 4 -6 0 -24 -9 -38 -10 -14 -19 -48 -20 -75 -2 -27 -10 -57 -19 -67 -9 -10
-14 -20 -12 -22 2 -2 -6 -13 -17 -24 l-20 -20 5 22 c4 14 0 24 -9 27 -8 3 -11
10 -8 16 3 5 1 10 -5 10 -6 0 -9 4 -6 9 4 5 0 12 -6 14 -10 4 -9 6 1 6 12 1
11 4 -2 19 -8 9 -17 24 -19 32 -2 8 -9 21 -15 28 -16 17 -17 36 -1 26 7 -5 8
-3 3 5 -5 9 -13 8 -29 -7 -11 -10 -29 -22 -38 -25 -11 -4 -16 -14 -13 -26 2
-12 -1 -20 -8 -18 -7 1 -11 -6 -10 -17 2 -24 -16 -6 -22 22 -2 15 0 19 11 15
8 -3 14 0 14 6 0 6 -6 11 -12 11 -8 1 -6 6 5 14 9 7 17 20 17 29 0 9 5 19 10
22 6 4 8 11 5 16 -4 5 -1 9 5 9 6 0 10 6 9 12 -1 7 3 27 10 43 7 17 14 40 14
52 1 13 5 23 8 23 12 0 21 34 26 103 4 44 2 67 -5 67 -6 0 -13 8 -15 18 -3 9
-5 -1 -6 -23 -1 -22 -10 -58 -20 -80 -21 -46 -66 -119 -57 -93 5 15 3 16 -15
5 -14 -9 -18 -19 -14 -37 5 -23 4 -23 -8 -7 -18 22 -22 22 -24 -5 -3 -44 -16
-83 -30 -91 -8 -5 -11 -16 -8 -27 3 -10 1 -21 -5 -25 -6 -3 -8 -11 -5 -16 4
-5 -1 -9 -10 -9 -10 0 -15 -7 -13 -17 3 -22 -9 -43 -25 -43 -19 0 -18 42 1 64
11 12 12 16 3 11 -10 -6 -12 -4 -6 5 4 7 8 29 9 49 1 25 6 35 15 33 12 -3 12
0 2 11 -7 9 -8 17 -2 19 5 1 10 19 12 38 2 19 6 40 9 45 10 16 10 55 -1 55 -5
0 -9 5 -9 11 0 5 5 7 10 4 6 -3 10 -1 10 4 0 6 -3 11 -7 11 -5 0 -9 44 -10 98
-1 53 -4 120 -8 147 -3 28 -7 55 -7 62 -1 7 -4 10 -8 8 -4 -3 -6 -16 -4 -30 2
-22 0 -24 -12 -14 -11 9 -14 8 -14 -8 0 -10 5 -24 11 -30 8 -8 6 -11 -7 -10
-15 2 -19 -5 -19 -26 1 -19 -3 -26 -12 -22 -10 3 -11 0 -3 -15 6 -11 6 -21 1
-25 -12 -7 -11 -65 0 -65 9 0 -21 -61 -35 -71 -4 -4 -2 -9 5 -11 11 -4 8 -12
-10 -31 -14 -16 -21 -32 -17 -42 3 -9 2 -13 -3 -10 -6 3 -14 -3 -20 -12 -13
-22 -12 -23 -16 55 -2 35 1 62 6 62 6 0 8 3 6 8 -3 4 -2 28 2 54 4 25 4 54 -1
63 -6 10 -6 21 1 29 6 7 8 16 4 20 -4 4 -9 24 -10 44 -2 28 0 33 8 22 9 -12
10 -11 4 5 -3 11 -9 34 -12 50 -4 23 -2 27 6 15 6 -8 11 -10 11 -4 0 6 -8 22
-19 35 -10 13 -17 32 -15 42 1 9 -2 15 -7 11 -5 -3 -9 -2 -10 3 0 4 -2 22 -3
38 -4 42 -16 75 -27 75 -6 0 -7 5 -4 10 3 6 2 10 -4 10 -8 0 -24 -44 -26 -75
-1 -5 -8 -24 -17 -41 -16 -29 -16 -32 5 -52 12 -12 16 -22 10 -22 -6 0 -13 7
-17 15 -8 21 -25 19 -24 -3 0 -9 -3 -33 -7 -52 -21 -102 -27 -188 -13 -213 10
-20 -6 -40 -26 -34 -23 7 -42 142 -24 164 6 7 8 18 5 26 -2 7 4 44 14 82 10
39 18 84 18 102 1 17 6 33 12 35 9 3 9 10 0 26 -8 14 -8 22 -1 22 5 0 10 7 10
15 0 8 4 15 10 15 6 0 6 9 0 24 -6 16 -5 26 1 28 12 4 16 158 5 177 -7 10 -2
12 25 6 l34 -6 -27 18 c-20 14 -24 23 -18 33 6 8 10 18 10 23 0 14 -17 7 -26
-11 -8 -16 -11 -16 -34 7 -14 13 -19 21 -12 17 6 -4 12 -2 12 3 0 6 -11 11
-25 11 -33 0 -32 -5 10 -42 31 -27 35 -35 30 -62 -9 -48 -48 -166 -54 -166 -3
0 -7 -12 -8 -26 0 -15 -6 -30 -12 -34 -7 -3 -14 -31 -16 -61 -2 -30 -15 -97
-29 -149 -19 -75 -27 -141 -37 -313 -19 -330 -24 -274 -15 148 3 132 1 256 -4
275 -5 19 -12 55 -15 80 -4 25 -10 63 -15 85 -8 39 -21 148 -24 210 0 17 -10
38 -21 48 l-20 18 20 -5 c66 -16 104 -30 100 -37 -3 -4 4 -5 14 -2 10 3 41 -5
68 -17 29 -13 42 -15 33 -7 -17 17 -157 69 -245 92 -34 9 -93 14 -138 13 -64
-1 -81 2 -100 18 -32 29 -68 50 -99 57 -26 7 -26 7 -12 -22 10 -19 25 -32 44
-36 43 -9 37 -20 -10 -20 -22 0 -40 5 -40 10 0 6 -4 4 -9 -4 -7 -11 -15 -8
-40 15 -55 51 -71 64 -82 64 -6 0 -22 9 -36 20 -32 25 -53 26 -53 1 0 -11 -4
-22 -9 -26 -5 -3 -12 -18 -16 -35 -4 -20 -11 -27 -21 -23 -8 3 -13 7 -10 10 2
2 1 16 -3 31 -6 20 -2 31 13 45 23 20 24 20 -34 6 -29 -7 -43 -49 -16 -49 8 0
17 -7 20 -16 5 -13 2 -15 -16 -10 -13 4 -44 12 -70 18 -33 8 -50 18 -55 32 -6
20 -7 20 -13 -4 l-7 -25 -8 29 c-13 47 -71 127 -95 132 -3 0 -18 6 -33 12 -15
7 -40 14 -55 17 l-27 5 28 -11 c15 -6 27 -17 27 -25 0 -8 9 -24 20 -36 21 -23
27 -44 10 -33 -15 10 -12 -12 5 -28 11 -12 12 -17 2 -20 -7 -3 -5 -6 5 -6 11
-1 15 -6 12 -16 -4 -10 0 -15 12 -16 18 0 17 -1 -1 -9 -11 -5 -15 -9 -9 -9 6
-1 9 -11 7 -25 -3 -13 0 -27 6 -30 5 -4 8 -13 5 -20 -3 -9 3 -17 17 -21 14 -5
18 -10 10 -14 -6 -4 -9 -16 -6 -27 6 -18 6 -18 -5 -1 -7 10 -9 21 -6 24 7 7
-24 32 -39 32 -5 0 -2 -6 8 -13 10 -8 19 -23 20 -35 1 -20 22 -35 36 -27 4 3
8 -5 8 -17 2 -17 0 -19 -8 -7 -8 13 -11 13 -20 -3 -8 -14 -13 -15 -23 -5 -7 7
-14 18 -15 23 -6 22 -23 46 -28 41 -3 -3 -1 -12 6 -20 9 -11 7 -13 -14 -13
-25 0 -37 16 -12 18 6 0 3 4 -8 9 -16 7 -16 9 -4 9 24 1 31 29 11 41 -15 8
-15 11 -2 20 9 5 10 10 3 10 -6 0 -10 13 -9 33 1 17 -3 41 -8 52 -6 11 -11 25
-11 30 -3 34 -64 151 -92 177 -33 31 -30 6 7 -68 67 -135 77 -267 30 -407 -37
-110 -120 -270 -163 -315 -45 -46 -144 -109 -228 -143 -95 -39 -269 -73 -336
-66 -62 6 -146 43 -213 92 -26 19 -50 32 -54 30 -3 -3 -4 -2 -2 1 3 3 -13 29
-35 57 -67 90 -125 211 -76 163 18 -18 27 -11 27 20 0 13 4 25 9 28 11 7 81
-63 81 -81 0 -7 7 -13 15 -13 8 0 15 -5 15 -10 0 -6 11 -15 25 -22 13 -6 22
-15 19 -20 -3 -5 -2 -8 3 -7 25 4 41 -3 46 -21 10 -39 26 -21 21 22 -3 24 -6
53 -7 64 -1 12 -9 30 -18 40 -9 11 -26 36 -38 57 -13 21 -30 44 -38 52 -8 8
-12 15 -9 15 3 0 -6 11 -20 25 -23 23 -52 78 -52 99 0 5 -6 12 -12 16 -7 4 -9
13 -6 19 4 6 12 8 18 5 6 -4 5 2 -1 15 -16 29 -6 42 27 36 15 -2 41 -5 59 -7
17 -1 30 -5 27 -9 -7 -12 8 -39 22 -39 8 0 14 -8 14 -17 0 -15 2 -16 10 -3 9
13 14 7 11 -12 -1 -12 41 -31 74 -34 27 -3 28 -2 8 6 -30 12 -29 19 1 16 17
-2 27 4 35 21 6 14 8 29 5 35 -4 6 3 18 15 27 l23 17 -22 36 c-11 20 -22 53
-23 74 -2 31 3 43 28 66 l30 27 -25 1 -25 0 29 19 c17 11 33 18 38 15 4 -3 8
0 8 5 0 6 7 11 16 11 9 0 29 9 45 21 16 11 35 19 41 17 7 -3 20 3 30 11 20 18
24 36 6 25 -10 -5 -10 -3 0 7 7 8 18 14 24 14 6 0 13 6 16 13 3 9 -3 11 -24 6
-21 -5 -25 -4 -20 7 4 8 -5 0 -21 -17 -15 -17 -37 -35 -48 -38 -15 -5 -17 -4
-9 4 13 13 7 50 -7 50 -5 0 -6 -7 -3 -15 8 -19 -14 -47 -29 -38 -5 3 -16 -2
-24 -12 -12 -17 -13 -17 -13 11 0 22 -3 25 -10 14 -11 -18 -18 -11 -35 37 -8
21 -14 30 -15 19 0 -12 -5 -16 -15 -12 -9 3 -18 -1 -21 -9 -3 -7 -12 -11 -20
-8 -9 3 -14 0 -12 -8 2 -8 -4 -13 -14 -13 -10 1 -18 -2 -18 -8 0 -5 -5 -6 -11
-3 -6 4 -8 13 -5 21 8 20 -14 17 -30 -3 -13 -17 -13 -17 -15 2 -1 11 -1 26 0
32 1 8 -5 10 -15 6 -14 -5 -16 -2 -12 15 4 14 2 19 -7 16 -7 -3 -19 8 -26 25
-8 17 -19 31 -24 31 -15 0 -45 37 -45 55 0 8 8 15 19 15 10 0 24 7 31 15 10
12 16 13 27 3 8 -6 13 -7 11 -1 -2 6 8 20 22 32 14 12 18 19 9 15 -22 -7 -34
12 -13 20 9 3 14 13 10 21 -3 8 1 21 9 29 22 22 18 26 -15 20 -26 -6 -30 -4
-30 15 0 11 -6 21 -13 21 -8 0 -20 11 -27 25 -7 14 -17 25 -22 25 -4 0 -8 5
-8 10 0 6 7 10 16 10 8 0 22 6 29 14 7 7 38 16 68 20 70 8 87 14 87 33 0 9 -6
13 -15 9 -8 -3 -15 -1 -15 4 0 6 -12 10 -27 10 -38 0 -73 10 -73 21 0 5 15 9
33 9 17 0 67 7 110 15 46 9 124 14 187 13 88 -1 112 1 135 16 14 10 33 15 40
12 8 -3 14 5 17 24 3 20 1 27 -9 23 -9 -3 -11 0 -7 10 3 9 -6 25 -22 41 -16
14 -25 28 -21 32 4 4 1 14 -6 22 -10 13 -9 14 11 3 14 -7 21 -18 18 -27 -3 -7
0 -13 7 -11 6 1 13 -8 15 -20 2 -14 8 -20 18 -16 8 3 14 0 14 -5 0 -6 7 -18
16 -26 9 -9 11 -16 4 -16 -6 0 -8 -5 -5 -10 10 -16 25 -1 25 24 0 35 -63 146
-83 146 -3 0 -18 11 -33 25 -15 14 -23 25 -18 25 5 0 -2 7 -14 16 -12 8 -19
20 -16 26 5 7 1 9 -9 5 -11 -4 -17 -1 -17 8 0 8 -7 15 -16 15 -9 0 -18 8 -21
18 -3 13 -14 19 -36 19 -18 0 -40 3 -49 7 -14 6 -18 3 -18 -13 0 -12 -4 -21
-10 -21 -5 0 -10 -6 -10 -13 0 -8 10 -13 22 -13 15 1 27 -7 33 -21 5 -13 13
-23 17 -23 4 0 14 -13 23 -30 9 -16 20 -30 26 -30 15 0 39 -26 31 -34 -3 -4 1
-4 9 -1 9 3 26 -3 40 -15 13 -12 18 -18 10 -14 -7 4 -31 8 -52 9 -32 2 -37 0
-28 -11 17 -21 -10 -18 -33 3 -18 16 -19 16 -13 -3 5 -16 4 -16 -11 4 -18 24
-39 30 -31 8 4 -10 0 -14 -12 -11 -16 3 -17 -1 -11 -28 16 -67 34 -85 47 -51
6 16 7 16 18 1 7 -9 30 -21 51 -26 37 -8 37 -9 9 -10 -17 -1 -36 -6 -42 -12
-6 -6 -52 -11 -102 -12 -50 -1 -91 -5 -91 -9 0 -5 -8 0 -18 10 -10 9 -14 20
-9 23 5 3 -19 5 -52 4 -73 -2 -95 8 -66 31 28 21 30 130 3 138 -25 6 -23 26 2
26 18 0 19 3 8 20 -7 11 -25 24 -40 29 -16 6 -28 15 -28 20 0 6 -9 20 -20 31
-16 16 -18 25 -10 40 6 11 15 20 20 20 17 0 11 28 -7 34 -14 6 -15 9 -4 15 7
5 12 11 12 15 -1 3 -1 9 0 14 0 4 1 32 1 62 0 30 4 60 9 67 7 7 6 14 -1 18 -5
3 -10 1 -10 -6 0 -7 -2 -10 -5 -8 -2 3 -1 20 5 37 5 20 5 30 -1 27 -5 -4 -5 3
0 18 5 13 5 30 1 37 -5 8 -7 17 -4 21 5 9 -34 86 -47 95 -5 3 -22 8 -37 10
-15 3 -34 12 -43 20 -8 8 -25 14 -37 14 -11 0 -23 4 -27 9 -3 5 -31 15 -63 22
-31 7 -60 17 -63 22 -4 5 -21 11 -39 13 -36 4 -54 14 -26 14 9 0 14 5 11 10
-4 6 -11 8 -16 5 -5 -4 -9 10 -9 29 0 20 -5 36 -11 36 -8 0 -8 4 1 14 6 8 17
13 25 10 7 -3 22 7 34 22 22 28 28 64 10 64 -6 0 -8 9 -4 21 5 14 1 25 -10 33
-14 10 -15 16 -6 34 7 13 8 22 2 22 -16 0 -24 40 -11 55 7 8 9 15 5 15 -5 0 0
9 10 20 10 11 30 20 44 20 71 -1 161 26 161 49 0 5 8 11 18 13 9 3 22 6 27 7
52 14 130 50 174 79 19 12 41 20 48 18 7 -3 15 -1 18 4 4 6 16 10 28 10 12 0
47 9 77 20 30 12 77 22 103 25 27 2 51 6 54 8 3 3 16 1 30 -4 19 -7 24 -6 21
3 -3 7 -13 15 -24 16 -10 2 -23 9 -29 14 -18 18 38 -3 60 -22 11 -10 50 -31
86 -48 37 -16 69 -35 73 -41 11 -17 26 -13 20 7 -6 22 12 -15 21 -43 5 -16 8
-17 15 -5 7 11 10 8 10 -12 0 -15 9 -42 20 -60 24 -40 25 -45 3 -51 -13 -3 -9
-8 17 -20 34 -15 82 -57 65 -57 -4 0 -2 -6 5 -14 6 -8 19 -12 27 -9 11 4 14 2
9 -5 -4 -7 -4 -12 1 -12 4 0 17 -19 28 -43 10 -23 32 -53 48 -67 23 -21 29
-34 31 -78 4 -61 8 -69 27 -45 9 11 10 14 2 9 -15 -8 -17 3 -4 23 10 15 11 13
27 -67 3 -13 1 -21 -3 -19 -5 3 -9 -3 -9 -13 0 -14 3 -16 13 -8 10 8 13 6 13
-10 0 -11 3 -28 7 -37 5 -14 2 -16 -18 -11 -20 6 -21 5 -6 -4 9 -6 21 -9 26
-6 5 3 12 -1 15 -10 9 -23 8 -27 -8 -21 -12 5 -12 2 0 -21 17 -33 18 -49 2
-55 -7 -3 -4 -6 7 -6 17 -1 17 -3 5 -11 -9 -6 -10 -10 -3 -10 6 0 13 -10 16
-22 2 -13 2 15 1 62 -4 111 -13 162 -28 153 -6 -4 -6 -1 2 9 14 18 5 51 -12
41 -7 -4 -7 -1 1 9 7 8 10 18 6 21 -7 8 -11 68 -14 205 -1 70 -5 92 -15 92 -8
0 -14 8 -14 18 0 14 2 15 10 2 15 -22 12 1 -6 53 -9 26 -29 58 -45 71 -16 14
-29 28 -29 32 0 4 -7 15 -16 25 -8 9 -16 24 -18 32 -2 18 -57 77 -72 77 -6 0
-27 15 -46 34 -19 18 -44 38 -56 45 -11 6 -42 29 -67 51 -25 22 -55 40 -65 40
-10 0 -26 7 -34 16 -9 9 -24 13 -35 9 -11 -3 -22 -2 -25 3 -3 5 -33 10 -67 10
-33 1 -66 5 -72 10 -7 5 -25 12 -42 15 -16 3 -66 13 -110 21 -94 18 -104 19
-128 5z m399 -215 c18 -14 18 -14 -6 -3 -31 14 -36 19 -24 19 6 0 19 -7 30
-16z m-103 -1 c-7 -2 -21 -2 -30 0 -10 3 -4 5 12 5 17 0 24 -2 18 -5z m-14
-19 c10 -9 -55 -3 -69 6 -10 6 -2 7 25 3 22 -3 42 -7 44 -9z m152 -21 c13 -16
12 -17 -3 -4 -17 13 -22 21 -14 21 2 0 10 -8 17 -17z m-234 -29 c-3 -3 -12 -4
-19 -1 -8 3 -5 6 6 6 11 1 17 -2 13 -5z m583 -142 c0 -9 -5 -24 -10 -32 -7
-11 -10 -5 -10 23 0 23 4 36 10 32 6 -3 10 -14 10 -23z m-44 3 c9 -8 11 -15 6
-15 -5 0 -15 7 -22 15 -7 8 -9 15 -6 15 4 0 14 -7 22 -15z m138 -31 c3 -8 2
-12 -4 -9 -6 3 -10 10 -10 16 0 14 7 11 14 -7z m-104 -59 c0 5 11 -2 24 -16
17 -19 23 -34 20 -58 -3 -22 0 -30 8 -25 7 5 8 3 3 -5 -4 -8 4 -25 23 -44 40
-43 56 -74 37 -74 -8 0 -13 3 -12 7 4 13 -48 80 -59 76 -7 -3 -10 3 -8 12 5
20 -23 55 -51 66 -15 5 -16 9 -6 15 10 6 10 13 2 28 -11 22 -2 41 11 21 4 -7
8 -9 8 -3z m127 -42 c-3 -10 -5 -2 -5 17 0 19 2 27 5 18 2 -10 2 -26 0 -35z
m-1427 -13 c-6 -11 -12 -20 -14 -20 -2 0 -2 9 1 20 3 11 9 20 15 20 5 0 4 -9
-2 -20z m1398 -41 c-3 -19 -5 -18 -27 12 -24 32 -24 32 -2 26 12 -3 21 0 22 6
1 7 3 4 6 -5 2 -10 3 -27 1 -39z m59 -15 c-4 -28 -5 -28 -12 -6 -4 12 -12 22
-17 22 -6 0 -5 7 2 15 18 22 33 4 27 -31z m-33 -39 c4 -14 14 -34 24 -43 9
-10 18 -29 19 -43 3 -23 2 -23 -12 -5 -8 11 -15 26 -15 33 0 7 -3 13 -8 13 -4
0 -12 16 -18 35 -6 19 -8 35 -4 35 4 0 11 -11 14 -25z m21 -135 c3 -5 -1 -10
-10 -10 -9 0 -13 5 -10 10 3 6 8 10 10 10 2 0 7 -4 10 -10z m-1297 -250 c6 0
12 -6 12 -14 0 -9 -7 -12 -20 -9 -11 3 -20 9 -20 14 0 5 -7 9 -16 9 -12 0 -15
-6 -10 -25 8 -31 -2 -33 -13 -2 -10 26 4 40 34 32 11 -2 26 -5 33 -5z m-94
-25 c-4 -8 -10 -12 -15 -9 -11 6 -2 24 11 24 5 0 7 -7 4 -15z m216 -115 c0 -5
3 -9 8 -9 19 3 33 -2 27 -11 -3 -6 1 -13 9 -16 9 -3 16 -10 16 -15 0 -10 -45
-34 -83 -43 l-28 -7 22 30 c19 26 21 34 11 56 -10 21 -9 25 3 25 8 0 15 -4 15
-10z m90 -50 c0 -5 -4 -10 -10 -10 -5 0 -10 5 -10 10 0 6 5 10 10 10 6 0 10
-4 10 -10z m-70 -159 c0 -5 -7 -11 -15 -15 -15 -5 -20 5 -8 17 9 10 23 9 23
-2z m73 -8 c-7 -3 -13 -9 -13 -14 0 -4 7 -6 15 -3 11 5 13 2 9 -10 -4 -9 -14
-16 -24 -14 -9 2 -23 -2 -31 -9 -12 -10 -15 -8 -15 8 0 10 5 19 12 19 6 0 19
9 29 20 10 11 21 17 24 14 3 -4 0 -9 -6 -11z m-133 3 c0 -3 -4 -8 -10 -11 -5
-3 -10 -1 -10 4 0 6 5 11 10 11 6 0 10 -2 10 -4z m-90 -21 c0 -8 -4 -15 -10
-15 -5 0 -7 7 -4 15 4 8 8 15 10 15 2 0 4 -7 4 -15z m-28 -22 c18 -16 21 -16
47 0 16 9 37 17 48 16 15 0 14 -2 -4 -9 -13 -5 -23 -14 -23 -20 0 -6 5 -8 13
-3 13 8 23 11 66 19 22 5 29 2 33 -13 4 -13 0 -19 -13 -19 -11 0 -19 6 -19 13
0 7 -4 13 -8 13 -10 0 -32 -22 -32 -32 0 -14 74 -8 94 7 11 8 25 15 30 15 6 0
4 -5 -4 -10 -13 -9 -13 -12 3 -21 20 -12 24 -69 5 -69 -9 0 -8 -3 2 -10 12 -8
12 -10 -3 -16 -11 -4 -16 -13 -12 -22 3 -10 -6 -26 -25 -43 -16 -15 -30 -32
-30 -38 0 -15 -49 -61 -65 -61 -8 0 -20 -9 -27 -20 -7 -11 -21 -20 -30 -20
-33 0 -43 52 -14 73 6 4 -2 5 -18 1 -24 -6 -28 -4 -23 9 3 9 0 23 -8 31 -20
19 -19 23 5 29 11 3 20 11 20 19 0 10 -2 10 -10 -2 -5 -8 -12 -11 -16 -8 -4 4
0 18 8 31 14 21 14 23 -2 23 -10 0 -16 -4 -13 -9 6 -9 -15 -37 -29 -37 -5 0
-6 5 -3 10 3 6 -1 13 -9 16 -25 10 -19 40 11 53 22 10 24 14 12 22 -12 8 -11
11 4 20 9 6 15 14 12 20 -4 5 -1 9 4 9 6 0 11 -8 11 -17 0 -12 3 -14 11 -6 8
8 6 18 -6 37 l-18 27 -24 -51 c-13 -27 -25 -50 -26 -50 -8 0 1 69 11 88 15 26
38 28 64 5z m-89 -8 c-3 -9 -8 -14 -10 -11 -3 3 -2 9 2 15 9 16 15 13 8 -4z
m277 -245 c0 -5 -5 -10 -11 -10 -5 0 -7 5 -4 10 3 6 8 10 11 10 2 0 4 -4 4
-10z m577 -72 c-3 -8 -6 -5 -6 6 -1 11 2 17 5 13 3 -3 4 -12 1 -19z m77 14 c3
-5 -1 -9 -9 -9 -8 0 -12 4 -9 9 3 4 7 8 9 8 2 0 6 -4 9 -8z m-712 -295 c-3
-13 2 -25 13 -33 11 -8 14 -14 8 -14 -7 0 -15 5 -18 10 -4 6 -10 8 -15 5 -14
-9 -38 50 -28 68 8 15 10 15 27 0 11 -9 16 -23 13 -36z m345 -449 c-3 -8 -6
-5 -6 6 -1 11 2 17 5 13 3 -3 4 -12 1 -19z m1119 -180 c34 -67 29 -74 -6 -8
-17 30 -37 66 -46 80 l-16 25 22 -25 c12 -14 33 -46 46 -72z m54 -82 c0 -8 -4
-18 -10 -21 -5 -3 -10 3 -10 14 0 12 5 21 10 21 6 0 10 -6 10 -14z m145 -27
c37 -11 47 -18 62 -46 8 -13 9 -24 3 -28 -5 -3 -14 5 -21 17 -7 12 -19 29 -27
37 -13 14 -14 10 -8 -34 l7 -50 -30 52 c-17 28 -35 54 -41 58 -17 10 -11 -18
9 -49 11 -17 18 -33 15 -38 -3 -4 0 -8 6 -8 6 0 8 -4 5 -10 -3 -5 -2 -10 2
-10 5 0 15 -16 22 -35 7 -19 16 -35 21 -35 5 0 7 -7 4 -15 -4 -8 -2 -15 4 -15
6 0 14 -15 17 -32 4 -18 17 -55 30 -83 33 -77 39 -105 19 -105 -11 0 -15 6
-11 20 3 10 0 21 -5 22 -5 2 -22 36 -38 76 -15 39 -42 94 -60 122 -17 27 -29
54 -25 60 3 5 2 10 -3 10 -9 0 -82 132 -82 149 0 6 20 4 48 -5 26 -8 61 -20
77 -25z m241 -6 c36 -54 43 -72 31 -77 -7 -2 -4 -5 6 -5 17 -1 23 -21 10 -35
-15 -15 -13 -111 4 -184 10 -42 17 -83 16 -89 0 -7 3 -13 7 -13 4 0 5 -11 3
-24 -3 -13 0 -27 6 -30 6 -4 11 -22 11 -40 0 -18 3 -36 8 -40 6 -7 44 -166 56
-236 11 -67 22 -119 42 -210 32 -144 74 -288 95 -325 10 -17 22 -69 20 -84 -1
-7 2 -10 8 -6 6 3 11 -1 11 -9 0 -9 5 -16 12 -16 6 0 9 -3 5 -6 -3 -4 0 -13 8
-21 18 -18 20 -37 3 -27 -7 4 -6 -1 4 -12 20 -23 39 -92 28 -99 -4 -3 -11 7
-15 23 -9 36 -23 52 -48 52 -20 0 -21 0 -1 15 16 13 16 14 2 9 -10 -3 -18 -1
-18 5 0 6 -7 8 -15 5 -10 -4 -12 -11 -6 -22 9 -19 22 -94 27 -162 2 -25 8 -76
15 -114 15 -94 26 -227 18 -218 -4 4 -11 36 -14 72 -4 36 -10 67 -15 70 -4 3
-10 41 -13 85 -3 44 -10 93 -16 108 -6 16 -9 33 -5 38 3 5 -1 23 -10 39 -8 17
-10 30 -5 30 6 0 7 5 2 13 -4 6 -9 35 -9 62 -2 69 -15 165 -23 161 -3 -2 -7 6
-7 17 -2 26 -5 43 -40 197 -15 63 -37 153 -50 200 -20 76 -32 125 -39 170 -1
8 -4 22 -7 30 -7 21 -27 99 -33 130 -3 14 -10 36 -15 50 -5 14 -14 54 -20 90
-12 75 -14 86 -35 200 -9 47 -21 108 -27 136 -6 29 -9 65 -6 82 2 17 1 29 -4
26 -4 -3 -8 0 -8 5 0 21 28 11 46 -16z m-414 -48 c3 -13 1 -22 -3 -19 -9 5
-13 44 -5 44 2 0 6 -11 8 -25z m746 -83 c0 -94 10 -207 24 -272 6 -30 11 -61
9 -68 -1 -8 6 -20 16 -28 17 -12 16 -13 -9 -14 -20 0 -26 4 -22 15 4 9 0 15
-7 15 -12 0 -12 2 -1 9 11 7 11 9 -2 14 -9 4 -16 15 -16 25 0 10 -4 22 -9 28
-10 10 -22 134 -26 267 -2 78 -1 86 13 75 13 -11 14 -10 8 12 -7 23 -6 24 7 7
10 -12 15 -42 15 -85z m46 73 c-4 -8 -7 -15 -9 -15 -2 0 -5 7 -9 15 -3 9 0 15
9 15 9 0 12 -6 9 -15z m-194 -35 c0 -5 -4 -10 -10 -10 -5 0 -10 5 -10 10 0 6
5 10 10 10 6 0 10 -4 10 -10z m-730 -44 c0 -3 -4 -8 -10 -11 -5 -3 -10 -1 -10
4 0 6 5 11 10 11 6 0 10 -2 10 -4z m68 -31 c12 0 17 -11 19 -37 2 -21 0 -38
-4 -38 -5 0 -7 -21 -4 -46 2 -25 -2 -51 -8 -57 -7 -7 -9 -5 -6 11 2 14 -4 26
-21 37 -13 8 -24 23 -24 33 0 14 2 15 10 2 7 -12 9 -10 7 8 -1 13 -5 18 -11
12 -6 -6 -16 -5 -28 1 -10 5 -23 7 -28 4 -6 -3 -10 -1 -10 5 0 8 9 10 24 6 18
-4 25 -1 29 13 2 11 0 24 -6 30 -7 7 -7 14 1 24 7 8 8 18 4 23 -4 5 4 0 16
-11 13 -11 31 -20 40 -20z m-83 -16 c-3 -15 0 -19 11 -15 9 3 12 1 9 -4 -10
-17 -35 -11 -35 8 0 16 8 32 16 32 2 0 1 -9 -1 -21z m232 -61 c-3 -7 -5 -2 -5
12 0 14 2 19 5 13 2 -7 2 -19 0 -25z m58 -68 c-3 -6 -2 -10 4 -10 5 0 13 -15
16 -32 4 -18 12 -42 18 -53 13 -23 19 -50 21 -85 0 -14 7 -30 15 -36 8 -6 11
-16 7 -22 -4 -7 -2 -12 4 -12 7 0 9 -7 6 -17 -4 -9 -2 -30 3 -47 6 -17 13 -51
16 -76 3 -25 8 -56 10 -70 3 -14 7 -61 11 -105 7 -101 6 -98 23 -111 11 -9 11
-12 -5 -18 -19 -7 -19 -8 0 -22 11 -8 15 -14 8 -14 -13 0 -5 -88 10 -107 5 -7
9 -22 7 -35 -3 -30 10 -60 24 -51 6 3 7 1 3 -5 -3 -6 -2 -30 3 -54 6 -24 12
-76 14 -116 3 -40 11 -79 18 -88 12 -15 11 -16 -8 -10 -12 4 -24 2 -28 -4 -3
-5 -12 -10 -18 -10 -7 0 -4 5 6 11 14 8 16 14 7 24 -7 8 -9 19 -5 25 3 5 2 10
-3 10 -5 0 -12 12 -15 26 -3 20 -1 24 11 19 14 -5 14 -4 0 12 -22 25 -32 63
-17 63 8 0 6 6 -4 18 -10 10 -17 26 -17 35 0 9 -3 17 -7 17 -5 0 -9 12 -10 28
-6 81 -9 100 -15 95 -8 -4 -12 34 -9 70 1 9 -2 17 -7 17 -6 0 -13 7 -16 16 -3
8 -2 12 4 9 13 -8 13 8 0 21 -6 6 -13 46 -16 90 -3 43 -6 85 -6 92 -1 6 -6 12
-11 12 -6 0 -6 5 0 13 13 16 8 80 -6 85 -6 2 -11 8 -11 13 0 6 4 7 10 4 6 -4
7 2 1 17 -8 23 -41 38 -41 19 0 -6 -4 -11 -8 -11 -5 0 -9 7 -9 15 0 8 6 15 14
15 15 0 15 2 7 24 -3 9 -10 13 -15 10 -5 -3 -7 -10 -4 -15 4 -5 -1 -9 -10 -9
-13 0 -14 4 -5 20 6 11 15 20 20 20 5 0 7 6 5 13 -11 34 -12 77 -2 77 9 0 8 3
0 8 -8 5 -11 24 -9 50 2 23 1 44 -4 47 -8 5 -25 89 -23 113 0 6 -3 12 -7 12
-5 0 -6 9 -3 20 5 19 8 17 30 -15 13 -19 21 -40 18 -45z m-265 48 c0 -4 -4 -8
-9 -8 -6 0 -12 4 -15 8 -3 5 1 9 9 9 8 0 15 -4 15 -9z m30 -43 c0 -3 -6 -4
-12 -2 -7 1 -12 -4 -10 -10 1 -7 -3 -12 -10 -10 -7 1 -12 -7 -13 -18 0 -11 -4
-26 -9 -33 -6 -10 -3 -12 10 -10 13 2 18 -4 19 -25 1 -15 -2 -30 -7 -33 -5 -3
-7 0 -6 7 2 6 -2 13 -9 16 -12 4 -12 -14 0 -33 4 -7 0 -17 -8 -24 -8 -7 -12
-17 -8 -24 3 -6 -3 -3 -14 7 -11 9 -23 14 -27 10 -4 -5 -6 -3 -4 2 2 6 -1 11
-7 12 -5 1 -9 -6 -9 -17 1 -11 -4 -20 -11 -20 -14 0 -14 44 0 47 5 1 12 10 16
20 7 17 8 17 8 0 1 -10 5 -16 10 -13 5 3 7 22 5 41 -1 19 1 35 7 35 5 0 9 8
10 18 0 14 2 14 9 -3 10 -23 11 -21 15 20 1 16 7 31 14 33 6 2 11 8 11 13 0 6
-5 7 -12 3 -7 -4 -8 -3 -4 4 5 9 13 9 27 2 10 -6 19 -13 19 -15z m-78 -28
c-12 -13 -19 -27 -15 -32 5 -4 2 -5 -5 -1 -11 6 -8 13 9 32 12 13 25 24 27 24
3 0 -4 -10 -16 -23z m91 8 c-3 -9 -8 -14 -10 -11 -3 3 -2 9 2 15 9 16 15 13 8
-4z m-26 -30 c0 -8 -4 -12 -9 -9 -5 3 -6 10 -3 15 9 13 12 11 12 -6z m-97 -28
c0 -2 -11 -14 -24 -26 -22 -21 -24 -21 -22 -5 2 11 8 19 14 19 6 0 14 3 18 8
8 7 14 9 14 4z m-2559 -80 c-8 -8 -14 -7 -23 2 -11 11 -10 13 5 8 12 -4 17 -1
18 11 0 12 2 13 6 4 3 -8 0 -19 -6 -25z m3066 3 c1 -14 0 -18 -3 -10 -4 8 -14
21 -23 28 -14 13 -14 13 4 10 13 -2 21 -12 22 -28z m-587 -6 c0 -8 -19 -13
-24 -6 -3 5 1 9 9 9 8 0 15 -2 15 -3z m-2460 -45 c0 -12 4 -17 11 -13 7 4 9 0
5 -14 -4 -13 -1 -22 9 -26 8 -3 15 -13 15 -21 0 -9 3 -14 8 -12 4 3 13 -1 20
-9 7 -8 8 -14 2 -14 -15 0 -12 -22 9 -71 11 -24 31 -84 46 -134 14 -49 30 -92
36 -96 6 -3 11 -10 11 -15 0 -5 5 -20 11 -34 15 -39 31 -410 18 -423 -8 -8
-11 -6 -11 9 0 11 -4 24 -9 29 -5 6 -12 21 -16 35 -5 19 -4 21 4 10 19 -27 13
24 -9 71 -11 24 -20 60 -20 79 -1 34 -29 90 -31 59 -1 -30 -18 32 -20 76 -2
27 -7 45 -15 45 -7 0 -11 8 -9 18 2 9 4 22 4 29 1 7 7 11 14 9 6 -1 9 -1 5 1
-5 3 -8 12 -9 21 0 11 -2 12 -6 5 -2 -7 -8 -13 -12 -13 -11 0 -32 66 -25 83 3
8 1 18 -5 22 -18 10 -12 28 7 21 15 -5 15 -5 2 6 -23 19 -24 68 -2 68 16 1 16
1 0 14 -10 7 -18 17 -18 21 0 4 6 2 14 -4 9 -7 17 -8 20 -3 3 6 -1 12 -8 15
-10 4 -13 15 -10 34 4 22 3 26 -7 16 -17 -17 -29 -16 -29 3 0 8 5 12 10 9 11
-7 13 6 4 29 -3 9 -10 13 -15 10 -5 -3 -6 2 -3 11 4 8 -1 26 -10 40 -14 22
-15 25 -1 25 8 0 15 -9 15 -21z m2566 -12 c-2 -18 -36 -64 -36 -49 0 7 -5 10
-10 7 -8 -5 -8 -11 0 -20 18 -22 -112 -164 -135 -146 -5 5 -18 7 -28 5 -11 -1
-16 0 -13 4 11 10 36 11 42 1 6 -11 24 -2 24 12 0 6 -4 8 -8 5 -5 -3 -9 1 -9
8 0 9 11 12 29 11 18 -2 27 2 25 9 -3 6 -9 10 -15 9 -5 -1 -9 5 -8 15 2 11 11
17 25 16 12 -1 20 3 19 8 -2 5 -6 8 -9 6 -3 -2 -13 3 -22 10 -9 8 -18 9 -21 3
-3 -5 -14 -8 -24 -6 -9 1 -26 -5 -37 -14 -18 -15 -19 -15 -7 0 10 14 10 18 -2
22 -7 3 -19 0 -25 -6 -8 -8 -9 -4 -6 13 5 26 15 40 15 20 0 -10 3 -10 15 0 8
7 12 17 8 24 -3 6 -2 7 2 3 12 -10 16 -39 5 -32 -5 3 -11 1 -14 -4 -10 -15 22
-21 34 -6 11 14 27 15 46 2 7 -4 17 0 25 9 7 8 22 20 33 25 20 9 20 9 3 -4
-10 -9 -14 -18 -9 -21 5 -3 17 3 27 14 10 11 14 20 10 20 -14 0 14 25 28 25 7
1 11 7 9 14 -1 7 2 10 7 7 5 -3 8 -12 7 -19z m-81 4 c3 -5 2 -12 -3 -15 -5 -3
-9 1 -9 9 0 17 3 19 12 6z m-75 -6 c0 -2 -6 -8 -13 -14 -10 -8 -14 -7 -14 2 0
8 6 14 14 14 7 0 13 -1 13 -2z m1160 -21 c0 -3 -7 -12 -15 -20 -8 -9 -15 -13
-15 -11 0 3 -2 12 -5 19 -4 9 2 14 15 15 11 1 20 -1 20 -3z m-1280 -49 c-10
-12 -10 -15 0 -15 8 0 11 -3 7 -6 -3 -3 -11 -3 -17 1 -8 5 -8 11 1 21 6 8 14
14 16 14 3 0 0 -7 -7 -15z m-1169 -32 c-8 -15 -10 -15 -11 -2 0 17 10 32 18
25 2 -3 -1 -13 -7 -23z m2440 6 c-9 -31 -1 -204 14 -280 15 -80 19 -126 11
-118 -10 10 -48 269 -48 323 1 33 -3 67 -8 76 -7 13 -5 16 13 15 14 -2 20 -8
18 -16z m-3181 7 c0 -3 -4 -8 -10 -11 -5 -3 -10 -1 -10 4 0 6 5 11 10 11 6 0
10 -2 10 -4z m1887 -31 c-9 -10 -14 -9 -24 4 -19 25 -15 32 11 20 19 -9 22
-14 13 -24z m-47 15 c0 -5 -5 -10 -11 -10 -5 0 -7 5 -4 10 3 6 8 10 11 10 2 0
4 -4 4 -10z m-1667 -26 c-3 -9 0 -20 8 -25 10 -6 8 -8 -9 -6 -24 1 -24 2 -16
34 4 13 10 20 15 18 4 -3 5 -13 2 -21z m1853 2 c2 -13 -1 -15 -11 -6 -16 13
-30 -3 -19 -22 4 -7 4 -10 -1 -6 -4 4 -15 2 -23 -5 -11 -9 -11 -4 2 16 10 15
15 27 12 27 -4 0 -5 4 -2 9 10 15 39 6 42 -13z m-2021 -3 c14 -33 23 -83 15
-83 -4 0 -3 -26 2 -57 5 -32 7 -66 4 -75 -2 -11 1 -18 10 -18 12 0 12 -4 4
-20 -7 -13 -7 -20 -1 -20 7 0 7 -9 1 -26 -6 -14 -7 -23 -2 -20 6 3 8 -24 13
-144 0 -8 5 -55 10 -105 5 -49 12 -117 14 -150 3 -33 8 -80 10 -105 3 -25 7
-83 10 -130 4 -46 9 -88 12 -94 4 -5 -1 -7 -10 -3 -10 3 -17 2 -17 -3 0 -6 7
-10 15 -10 18 0 18 -4 6 -47 -5 -17 -6 -34 -3 -38 4 -4 7 -12 7 -18 1 -7 6
-11 13 -10 14 4 16 -13 2 -22 -5 -3 -10 -1 -10 6 0 10 -3 10 -12 1 -10 -10
-10 -15 0 -21 11 -6 10 -10 -4 -15 -10 -4 -21 -1 -25 5 -4 6 -12 9 -18 5 -9
-6 -13 40 -11 137 0 15 -5 27 -10 27 -6 0 -8 5 -5 10 4 6 11 8 16 5 12 -8 11
6 -1 25 -5 9 -5 19 2 27 7 9 7 13 -1 13 -7 0 -10 4 -6 9 3 5 1 12 -5 16 -5 3
-10 11 -10 16 0 6 5 7 10 4 6 -3 13 2 17 11 4 10 2 19 -5 22 -15 5 -16 32 -2
32 6 0 10 5 10 11 0 5 -4 8 -9 4 -5 -3 -12 -1 -16 5 -3 5 -1 10 5 10 7 0 9 36
5 118 -7 131 -21 329 -30 412 -3 30 -8 82 -11 115 -9 105 -11 130 -14 140 -1
6 -2 22 -1 38 1 31 15 36 26 10z m-163 -15 c7 -13 12 -27 13 -33 0 -5 5 -30
10 -55 5 -25 8 -48 7 -52 -1 -5 2 -8 6 -8 13 0 34 -121 36 -207 3 -118 -12
-414 -23 -448 l-9 -30 -1 30 c-1 17 -4 41 -8 54 -4 17 -3 22 5 17 8 -5 12 0
12 13 0 11 -5 23 -11 26 -6 4 -8 13 -5 20 2 7 0 17 -5 22 -7 7 -5 15 5 25 17
18 11 58 -9 58 -16 0 -13 32 3 38 7 2 9 9 5 15 -4 7 -8 28 -9 47 -1 19 -7 53
-13 75 -6 24 -6 42 -1 45 6 4 5 19 -3 40 -9 26 -9 34 1 37 6 3 12 13 12 24 0
10 -6 19 -12 20 -10 0 -10 2 0 6 18 7 15 33 -5 33 -15 0 -16 2 -3 10 13 8 12
10 -5 11 -16 1 -17 2 -3 6 10 2 15 10 11 19 -3 7 -10 11 -17 7 -6 -4 -5 1 3
10 8 10 11 20 7 24 -3 3 -6 0 -6 -7 0 -16 -13 -5 -16 13 -1 7 -3 19 -5 27 -2
8 1 14 7 13 7 -1 14 6 17 17 4 16 2 17 -21 9 -25 -9 -25 -9 -10 8 8 10 13 24
11 31 -8 21 16 13 29 -10z m715 16 c-3 -3 -12 -4 -19 -1 -8 3 -5 6 6 6 11 1
17 -2 13 -5z m11 -65 c-18 -11 -30 4 -22 26 7 17 8 17 21 -1 10 -14 10 -19 1
-25z m1939 19 c-3 -8 -6 -5 -6 6 -1 11 2 17 5 13 3 -3 4 -12 1 -19z m-568 -6
c7 -14 6 -19 -4 -19 -7 0 -11 7 -7 15 4 11 1 13 -8 7 -9 -5 -11 -4 -6 3 10 16
14 15 25 -6z m-1747 -14 c0 -7 3 -38 4 -68 7 -118 25 -220 38 -220 7 0 7 -3 1
-8 -11 -8 -14 -133 -2 -125 4 2 7 -4 7 -13 0 -10 8 -26 18 -37 9 -11 11 -17 5
-13 -12 7 -18 -12 -14 -37 1 -5 -4 -7 -11 -4 -7 2 -12 9 -11 15 2 6 -6 14 -17
17 -13 4 -20 16 -21 33 -2 42 -6 67 -13 98 -18 70 -26 184 -14 184 5 0 6 5 2
12 -13 20 -12 158 0 158 6 0 4 5 -4 10 -12 8 -11 10 8 10 12 0 23 -6 24 -12z
m2328 -8 c0 -5 -5 -10 -11 -10 -5 0 -7 5 -4 10 3 6 8 10 11 10 2 0 4 -4 4 -10z
m-3 -36 c-3 -3 -12 -4 -19 -1 -8 3 -5 6 6 6 11 1 17 -2 13 -5z m-714 -19 c-3
-9 -8 -14 -10 -11 -3 3 -2 9 2 15 9 16 15 13 8 -4z m147 -35 c0 -5 -2 -10 -4
-10 -3 0 -8 5 -11 10 -3 6 -1 10 4 10 6 0 11 -4 11 -10z m-44 -27 c16 -21 18
-37 4 -28 -13 8 -33 45 -24 45 4 0 13 -8 20 -17z m-1616 -3 c0 -5 -4 -10 -10
-10 -5 0 -10 5 -10 10 0 6 5 10 10 10 6 0 10 -4 10 -10z m1657 -5 c0 -8 -4
-12 -9 -9 -5 3 -6 10 -3 15 9 13 12 11 12 -6z m-110 -27 c-3 -8 -6 -5 -6 6 -1
11 2 17 5 13 3 -3 4 -12 1 -19z m893 12 c0 -5 -2 -10 -4 -10 -3 0 -8 5 -11 10
-3 6 -1 10 4 10 6 0 11 -4 11 -10z m-1203 -22 c-3 -8 -6 -5 -6 6 -1 11 2 17 5
13 3 -3 4 -12 1 -19z m1953 12 c0 -5 -7 -10 -16 -10 -8 0 -12 5 -9 10 3 6 10
10 16 10 5 0 9 -4 9 -10z m-1684 -17 c16 -22 18 -43 3 -43 -5 0 -8 3 -5 8 2 4
-3 16 -11 27 -14 19 -15 18 -8 -14 5 -26 4 -32 -5 -26 -8 5 -11 4 -7 -3 4 -5
18 -9 32 -7 14 1 27 -1 30 -5 2 -4 -1 -7 -8 -8 -50 -6 -128 -21 -136 -26 -5
-4 -7 3 -3 16 3 12 7 17 10 10 2 -6 8 -12 13 -12 5 0 4 9 -3 19 -7 11 -16 17
-20 15 -4 -3 -8 0 -8 5 0 6 5 11 11 11 5 0 8 4 4 10 -4 7 57 33 94 39 2 1 10
-7 17 -16z m-249 -25 c-3 -7 -5 -2 -5 12 0 14 2 19 5 13 2 -7 2 -19 0 -25z
m-1273 -47 c8 -11 8 -13 -1 -8 -6 4 -13 4 -16 0 -2 -5 -3 -3 -1 3 1 6 -2 16
-8 22 -6 6 -7 16 -2 24 7 10 9 8 12 -7 2 -11 9 -26 16 -34z m-900 24 c-4 -8
-10 -15 -15 -15 -4 0 -6 7 -3 15 4 8 10 15 15 15 4 0 6 -7 3 -15z m2207 -7
l10 -23 -5 23 c-3 18 0 22 22 21 19 -1 21 -3 9 -6 -11 -3 -16 -10 -13 -20 3
-8 6 -21 6 -30 0 -9 6 -13 15 -10 8 4 16 3 19 -1 3 -5 -12 -9 -32 -9 -20 -1
-31 0 -24 3 20 9 14 23 -8 17 -25 -7 -70 4 -70 17 0 6 14 8 32 5 26 -5 29 -3
20 8 -7 8 -9 17 -5 20 10 11 13 9 24 -15z m-148 5 c-7 -2 -19 -2 -25 0 -7 3
-2 5 12 5 14 0 19 -2 13 -5z m104 1 c-3 -3 -12 -4 -19 -1 -8 3 -5 6 6 6 11 1
17 -2 13 -5z m-102 -24 c3 -5 1 -10 -4 -10 -6 0 -11 5 -11 10 0 6 2 10 4 10 3
0 8 -4 11 -10z m466 -51 c-12 -12 -25 -18 -29 -14 -4 4 -1 10 6 12 7 3 18 11
25 18 7 7 14 11 16 9 3 -2 -6 -14 -18 -25z m-1636 11 c3 -5 1 -10 -4 -10 -6 0
-11 5 -11 10 0 6 2 10 4 10 3 0 8 -4 11 -10z m1595 -31 c0 -5 -4 -8 -9 -4 -5
3 -13 -4 -16 -16 -4 -11 -9 -18 -12 -16 -7 8 16 47 27 47 6 0 10 -5 10 -11z
m1390 -181 c12 -77 19 -142 17 -145 -3 -2 -10 29 -16 69 -7 40 -18 108 -26
151 -8 42 -15 87 -14 100 1 41 16 -26 39 -175z m-840 147 c0 -8 -2 -15 -4 -15
-2 0 -6 7 -10 15 -3 8 -1 15 4 15 6 0 10 -7 10 -15z m-638 -14 c-4 -10 -7 -11
-10 -3 -2 7 -8 12 -14 12 -6 0 -8 -7 -4 -15 3 -8 1 -15 -4 -15 -6 0 -10 9 -10
20 0 15 6 19 24 18 17 -2 22 -7 18 -17z m684 7 c4 -7 3 -8 -4 -4 -7 4 -12 2
-12 -5 0 -7 -3 -10 -6 -6 -6 5 3 27 11 27 2 0 7 -5 11 -12z m-675 -37 c-12
-12 -21 -16 -21 -11 0 13 34 48 38 39 2 -4 -6 -17 -17 -28z m-101 4 c-7 -9
-15 -13 -17 -11 -6 6 20 36 26 30 2 -2 -2 -10 -9 -19z m-35 -33 c-8 -8 -25 10
-25 26 0 13 2 13 14 -4 8 -10 13 -21 11 -22z m835 31 c0 -5 -11 -13 -24 -19
-19 -9 -26 -9 -30 1 -2 7 -2 16 1 19 9 9 53 7 53 -1z m-770 -23 c0 -5 -2 -10
-4 -10 -3 0 -8 5 -11 10 -3 6 -1 10 4 10 6 0 11 -4 11 -10z m23 -5 c-3 -9 -8
-14 -10 -11 -3 3 -2 9 2 15 9 16 15 13 8 -4z m773 -29 c3 -14 3 -30 -1 -35 -3
-7 0 -8 9 -5 9 3 16 1 16 -5 0 -6 -9 -11 -20 -11 -12 0 -24 -10 -30 -22 l-9
-23 0 23 c-1 12 4 22 10 22 7 0 10 15 7 40 -4 44 8 54 18 16z m-2209 -8 c-3
-8 -6 -5 -6 6 -1 11 2 17 5 13 3 -3 4 -12 1 -19z m2172 0 c10 -25 -9 -48 -38
-48 -11 0 -9 6 9 20 14 10 21 22 17 27 -5 4 -11 2 -15 -4 -5 -8 -13 -9 -22 -3
-13 8 -12 10 3 10 10 0 15 5 12 10 -3 6 1 10 10 10 8 0 20 -10 24 -22z m308
-20 c-3 -8 -6 -5 -6 6 -1 11 2 17 5 13 3 -3 4 -12 1 -19z m-1288 -25 c2 -2 -5
-3 -17 -3 -14 0 -22 6 -22 16 0 14 3 15 18 3 9 -7 19 -15 21 -16z m-1189 1 c0
0 -9 -9 -20 -19 -19 -18 -20 -17 -20 1 0 13 7 20 20 20 11 0 20 -1 20 -2z
m1460 -25 c0 -4 -7 -15 -16 -23 -8 -9 -12 -20 -9 -26 3 -5 1 -10 -4 -10 -6 0
-11 -7 -11 -16 0 -8 -5 -12 -11 -9 -6 4 -8 14 -5 22 4 9 1 22 -5 29 -9 11 -8
14 1 14 7 0 10 8 7 20 -6 25 0 25 26 3 19 -18 20 -17 7 7 -12 23 -12 24 3 11
10 -7 17 -17 17 -22z m-256 -14 c3 -8 1 -15 -3 -15 -5 0 -11 7 -15 15 -3 8 -1
15 3 15 5 0 11 -7 15 -15z m956 3 c0 -4 -7 -8 -15 -8 -8 0 -15 4 -15 8 0 5 7
9 15 9 8 0 15 -4 15 -9z m-2890 -8 c0 -5 -2 -10 -4 -10 -3 0 -8 5 -11 10 -3 6
-1 10 4 10 6 0 11 -4 11 -10z m2270 0 c0 -5 -5 -10 -11 -10 -5 0 -7 5 -4 10 3
6 8 10 11 10 2 0 4 -4 4 -10z m690 -11 c0 -5 -4 -7 -10 -4 -5 3 -10 0 -10 -8
0 -8 9 -17 20 -20 11 -3 20 -11 20 -19 0 -11 -2 -11 -9 0 -4 8 -11 13 -15 13
-19 -3 -24 1 -28 24 -4 19 -1 25 13 25 11 0 19 -5 19 -11z m-2257 -37 c-3 -12
-10 -22 -15 -22 -5 0 -7 4 -4 9 4 5 0 12 -6 14 -8 3 -6 6 5 6 9 1 17 6 17 13
0 6 2 9 5 7 2 -3 2 -15 -2 -27z m1420 8 c-3 -11 0 -27 7 -35 14 -17 6 -47 -12
-44 -7 1 -21 -1 -31 -6 -10 -4 -21 -5 -24 -1 -4 3 8 12 25 18 35 14 36 16 23
51 -9 24 -6 37 10 37 4 0 5 -9 2 -20z m784 -2 c-3 -8 -6 -5 -6 6 -1 11 2 17 5
13 3 -3 4 -12 1 -19z m1288 2 c3 -5 1 -10 -4 -10 -6 0 -11 5 -11 10 0 6 2 10
4 10 3 0 8 -4 11 -10z m-4855 -9 c0 -5 -7 -11 -14 -14 -10 -4 -13 -1 -9 9 6
15 23 19 23 5z m1472 -26 c-6 -34 -12 -32 -12 6 0 16 4 28 9 25 4 -3 6 -17 3
-31z m2078 31 c0 -3 -4 -8 -10 -11 -5 -3 -10 -1 -10 4 0 6 5 11 10 11 6 0 10
-2 10 -4z m1460 -16 c0 -5 -5 -10 -11 -10 -5 0 -7 5 -4 10 3 6 8 10 11 10 2 0
4 -4 4 -10z m-2250 -15 c0 -13 -4 -14 -21 -5 -23 13 -41 4 -20 -9 9 -6 10 -11
3 -15 -12 -7 -35 28 -25 38 13 13 63 6 63 -9z m2190 5 c0 -5 -2 -10 -4 -10 -3
0 -8 5 -11 10 -3 6 -1 10 4 10 6 0 11 -4 11 -10z m-4953 -97 c-7 -9 -5 -13 7
-13 9 0 16 -8 16 -20 0 -11 5 -20 10 -20 6 0 10 -7 10 -16 0 -9 9 -29 21 -45
11 -16 17 -33 14 -39 -3 -5 1 -10 10 -10 9 0 15 -6 14 -12 -3 -27 2 -38 17
-38 8 0 13 -4 10 -9 -4 -5 7 -15 23 -22 16 -7 27 -18 24 -25 -2 -6 3 -14 11
-17 9 -4 16 -13 16 -21 0 -10 6 -13 15 -10 11 5 13 2 8 -12 -5 -13 -3 -16 8
-12 11 4 15 -5 17 -39 1 -29 -1 -42 -8 -38 -6 4 -9 12 -7 18 2 7 -9 17 -25 24
-15 7 -28 19 -28 29 0 10 -5 14 -16 10 -10 -4 -21 4 -32 24 -9 16 -23 30 -29
30 -7 0 -13 9 -13 20 0 17 -2 19 -14 8 -8 -7 -10 -14 -5 -16 5 -2 9 -8 9 -14
0 -16 -38 21 -45 43 -4 11 -12 16 -22 12 -12 -5 -14 -1 -8 15 4 13 2 22 -4 22
-6 0 -11 4 -11 10 0 5 8 6 17 3 14 -6 13 -2 -4 21 -15 18 -21 38 -19 57 2 16
0 32 -5 35 -9 5 -4 77 6 94 3 5 1 18 -4 28 -6 11 -7 23 -3 27 12 12 31 -68 19
-82z m3584 57 c5 0 4 -9 -3 -19 -16 -26 -35 -16 -35 18 0 25 2 27 14 15 8 -8
19 -14 24 -14z m1349 14 c0 -8 -4 -12 -10 -9 -5 3 -10 10 -10 16 0 5 5 9 10 9
6 0 10 -7 10 -16z m-2245 -4 c3 -5 1 -10 -4 -10 -6 0 -11 5 -11 10 0 6 2 10 4
10 3 0 8 -4 11 -10z m2472 -21 c-1 -19 -2 -19 -14 -3 -17 23 -16 35 1 28 8 -3
14 -15 13 -25z m-1529 4 c-2 -10 -11 -24 -21 -32 -10 -7 -16 -19 -14 -25 3 -7
1 -19 -4 -27 -6 -10 -9 -6 -9 14 0 16 10 42 23 57 26 34 29 35 25 13z m29 -15
c-15 -9 -19 -4 -11 16 5 14 9 15 15 5 5 -8 3 -17 -4 -21z m710 -25 c-3 -10 -5
-4 -5 12 0 17 2 24 5 18 2 -7 2 -21 0 -30z m-1581 -2 c0 -12 -5 -17 -15 -13
-9 3 -12 0 -9 -9 3 -8 -3 -30 -12 -49 -10 -20 -18 -53 -17 -75 1 -21 -4 -40
-9 -42 -6 -2 -9 -27 -8 -60 3 -49 2 -53 -11 -37 -13 18 -14 18 -8 -5 3 -14 1
-26 -7 -31 -10 -6 -10 -15 -2 -39 9 -25 8 -31 -4 -31 -7 0 -14 7 -14 15 0 8
-4 15 -10 15 -6 0 -6 9 0 25 8 21 6 25 -8 26 -10 0 -12 3 -4 6 17 7 15 23 -3
23 -8 0 -15 7 -15 15 0 8 6 12 13 10 6 -3 19 -1 27 5 12 7 12 12 3 21 -9 9
-10 16 -1 26 8 10 7 12 -5 8 -8 -4 -18 -2 -21 3 -3 5 3 12 14 15 15 4 18 12
15 36 -2 18 0 29 6 25 5 -3 6 -10 3 -16 -4 -6 -2 -8 4 -4 5 3 12 0 15 -6 2 -7
4 -1 3 14 0 14 -3 26 -6 26 -21 -2 -30 5 -30 22 0 11 7 20 15 20 8 0 15 -7 15
-15 0 -9 6 -12 15 -9 10 4 12 10 7 18 -13 15 -21 76 -10 76 4 0 8 -6 8 -14 0
-8 6 -17 13 -20 10 -5 10 -7 0 -12 -7 -3 -13 -11 -13 -17 0 -6 7 -4 16 5 13
13 14 20 4 38 -11 20 -10 21 11 15 17 -6 21 -4 16 8 -4 10 -1 14 6 11 7 -2 13
-13 13 -23z m2354 8 c0 -5 -4 -9 -10 -9 -5 0 -10 7 -10 16 0 8 5 12 10 9 6 -3
10 -10 10 -16z m-1480 -9 c12 -7 12 -12 2 -22 -11 -11 -13 -9 -11 8 0 4 -5 11
-13 15 -7 5 -8 9 -3 9 6 0 17 -5 25 -10z m-2210 -26 c0 -8 -4 -14 -10 -14 -5
0 -10 9 -10 21 0 11 5 17 10 14 6 -3 10 -13 10 -21z m1240 -3 c0 -6 -4 -13
-10 -16 -5 -3 -10 1 -10 9 0 9 5 16 10 16 6 0 10 -4 10 -9z m1075 -11 c3 -5 1
-10 -4 -10 -6 0 -11 5 -11 10 0 6 2 10 4 10 3 0 8 -4 11 -10z m1354 7 c-2 -1
-11 -8 -20 -15 -14 -10 -18 -10 -23 3 -4 11 1 15 21 15 14 0 24 -1 22 -3z
m-1464 -17 c3 -6 -1 -7 -9 -4 -10 4 -16 1 -16 -7 0 -7 -3 -10 -6 -6 -7 7 4 27
16 27 5 0 12 -4 15 -10z m-32 -57 c-5 -13 -7 -13 -15 1 -5 9 -13 14 -17 12 -4
-3 -8 1 -8 8 0 11 6 12 23 4 14 -7 20 -16 17 -25z m-1443 5 c0 -4 -6 -8 -14
-8 -8 0 -17 4 -20 8 -2 4 4 8 15 8 10 0 19 -4 19 -8z m1655 2 c4 -6 -7 -10
-27 -10 -25 0 -29 3 -18 10 19 13 37 13 45 0z m-119 -75 c-3 -8 -11 -15 -17
-15 -8 0 -7 5 2 17 10 11 10 14 2 9 -9 -5 -13 0 -13 14 0 20 1 20 16 5 9 -8
13 -22 10 -30z m-116 25 c0 -5 -5 -10 -11 -10 -5 0 -7 5 -4 10 3 6 8 10 11 10
2 0 4 -4 4 -10z m12 -43 c-4 -14 -7 -16 -13 -5 -12 19 -11 25 5 25 8 0 11 -8
8 -20z m195 16 c-4 -3 -2 -12 4 -19 7 -9 7 -18 0 -31 -8 -14 -10 -15 -11 -3 0
8 -3 25 -6 38 -4 14 -2 22 7 22 7 0 9 -3 6 -7z m-232 -21 c-3 -3 -11 0 -18 7
-9 10 -8 11 6 5 10 -3 15 -9 12 -12z m-1415 -12 c0 -5 -2 -10 -4 -10 -3 0 -8
5 -11 10 -3 6 -1 10 4 10 6 0 11 -4 11 -10z m1441 -30 c5 0 9 -9 9 -20 0 -21
-8 -25 -25 -12 -14 10 -17 32 -9 51 6 14 8 14 11 -1 3 -10 9 -18 14 -18z
m-941 0 c0 -5 -2 -10 -4 -10 -3 0 -8 5 -11 10 -3 6 -1 10 4 10 6 0 11 -4 11
-10z m1040 -9 c0 -5 -7 -11 -14 -14 -10 -4 -13 -1 -9 9 6 15 23 19 23 5z m123
-8 c-7 -2 -19 -2 -25 0 -7 3 -2 5 12 5 14 0 19 -2 13 -5z m-3805 -65 c8 -10
12 -23 9 -31 -2 -7 1 -21 9 -32 8 -10 14 -29 14 -40 0 -12 9 -30 20 -40 11
-10 22 -26 25 -36 4 -11 11 -17 16 -14 5 4 9 1 9 -6 0 -7 8 -9 21 -6 16 4 18
3 8 -9 -7 -9 -8 -14 -1 -14 6 0 14 5 17 10 10 17 25 11 18 -7 -4 -11 -3 -14 5
-9 7 4 12 3 12 -2 0 -6 7 -13 16 -16 14 -5 15 -4 4 9 -8 9 -8 15 -2 15 6 0 14
-5 17 -11 4 -6 14 -8 22 -5 11 4 13 2 9 -9 -3 -8 -1 -15 5 -15 6 0 7 -5 4 -11
-4 -6 2 -13 14 -16 12 -3 21 -9 21 -13 0 -8 -68 -6 -76 3 -3 3 -12 3 -19 1 -7
-3 -23 -1 -34 5 -16 9 -19 9 -16 -1 4 -10 -9 -13 -47 -13 -32 0 -53 5 -55 13
-3 6 -10 12 -18 12 -7 0 -12 11 -12 26 0 17 4 24 13 20 20 -8 17 1 -7 25 -28
28 -49 11 -27 -23 9 -15 12 -33 7 -53 -6 -28 -7 -28 -8 -5 -1 14 -9 34 -17 45
-15 19 -15 19 -8 -9 5 -22 4 -28 -7 -24 -8 3 -14 13 -14 24 0 10 -4 25 -9 33
-6 10 -6 12 2 7 7 -4 18 -1 25 5 11 11 11 18 -1 43 -11 22 -12 31 -4 34 8 2 9
9 3 21 -6 10 -9 31 -9 48 1 16 -2 35 -5 40 -4 6 1 26 10 44 11 22 18 28 21 19
3 -8 11 -23 20 -32z m3579 10 c-3 -8 -6 -5 -6 6 -1 11 2 17 5 13 3 -3 4 -12 1
-19z m-1507 -18 c0 -11 -4 -20 -9 -20 -5 0 -7 9 -4 20 3 11 7 20 9 20 2 0 4
-9 4 -20z m1624 5 c3 -8 1 -15 -4 -15 -6 0 -10 5 -10 11 0 5 -5 7 -12 3 -7 -4
-8 -3 -4 4 10 16 23 15 30 -3z m-1614 -58 c-10 -9 -11 -9 -6 1 4 7 2 12 -6 12
-9 0 -9 3 2 10 19 12 27 -7 10 -23z m1607 17 c-3 -3 -12 -4 -19 -1 -8 3 -5 6
6 6 11 1 17 -2 13 -5z m-117 -37 c0 -5 -4 -5 -10 -2 -5 3 -10 14 -10 23 0 15
2 15 10 2 5 -8 10 -19 10 -23z m160 2 c0 -5 -4 -9 -10 -9 -5 0 -10 7 -10 16 0
8 5 12 10 9 6 -3 10 -10 10 -16z m-3460 -9 c0 -5 -7 -7 -15 -4 -8 4 -15 8 -15
10 0 2 7 4 15 4 8 0 15 -4 15 -10z m410 2 c0 -5 -7 -17 -15 -28 -14 -18 -14
-17 -4 9 12 27 19 34 19 19z m3110 -12 c0 -5 -4 -10 -10 -10 -5 0 -10 5 -10
10 0 6 5 10 10 10 6 0 10 -4 10 -10z m-2645 -50 c3 -5 12 -7 19 -4 10 4 12 -2
9 -21 -6 -29 -23 -44 -23 -20 0 9 -10 25 -22 36 -19 15 -20 18 -6 19 9 0 19
-4 23 -10z m2392 -52 c-3 -8 -6 -5 -6 6 -1 11 2 17 5 13 3 -3 4 -12 1 -19z
m-2394 -8 c3 -11 2 -20 -2 -20 -3 0 -12 9 -19 20 -10 16 -10 20 2 20 7 0 16
-9 19 -20z m977 -16 c0 -14 -4 -23 -9 -20 -5 3 -7 15 -4 26 7 28 13 25 13 -6z
m1020 16 c0 -5 -2 -10 -4 -10 -3 0 -8 5 -11 10 -3 6 -1 10 4 10 6 0 11 -4 11
-10z m810 -20 c0 -5 -2 -10 -4 -10 -3 0 -8 5 -11 10 -3 6 -1 10 4 10 6 0 11
-4 11 -10z m-2800 -20 c0 -5 -5 -10 -11 -10 -5 0 -7 5 -4 10 3 6 8 10 11 10 2
0 4 -4 4 -10z m30 -10 c0 -5 -5 -10 -11 -10 -5 0 -7 5 -4 10 3 6 8 10 11 10 2
0 4 -4 4 -10z m3031 -63 c-10 -9 -11 -8 -5 6 3 10 9 15 12 12 3 -3 0 -11 -7
-18z m-3927 -52 c-21 -16 -36 -15 -41 2 -3 7 4 9 16 6 24 -6 29 15 6 23 -8 4
-12 10 -9 16 3 5 15 0 26 -12 19 -21 19 -22 2 -35z m3251 35 c3 -11 4 -24 1
-29 -4 -5 -1 -11 6 -13 7 -3 9 -11 3 -24 -4 -10 -7 -25 -6 -33 2 -11 0 -11
-12 0 -12 12 -12 15 0 28 8 8 10 17 5 20 -12 8 -24 71 -12 71 5 0 11 -9 15
-20z m65 6 c0 -3 -4 -8 -10 -11 -5 -3 -10 -1 -10 4 0 6 5 11 10 11 6 0 10 -2
10 -4z m-2860 -41 c0 -12 -19 -12 -23 0 -4 9 -1 12 9 8 7 -3 14 -7 14 -8z
m2857 -20 c-7 -7 -16 -10 -22 -7 -5 3 -4 7 3 10 7 2 12 11 12 20 0 14 2 14 9
3 6 -9 5 -19 -2 -26z m-3663 6 c4 -5 -3 -7 -14 -4 -23 6 -26 13 -6 13 8 0 17
-4 20 -9z m77 -8 c13 -15 12 -15 -7 -5 -12 6 -25 8 -29 4 -5 -4 -5 -1 -1 6 10
16 21 15 37 -5z m-8 -34 l22 -21 -22 11 c-12 6 -25 16 -28 21 -11 17 5 11 28
-11z m3604 -1 c-3 -8 -6 -5 -6 6 -1 11 2 17 5 13 3 -3 4 -12 1 -19z m-3687 8
c0 -3 -4 -8 -10 -11 -5 -3 -10 -1 -10 4 0 6 5 11 10 11 6 0 10 -2 10 -4z"/>
<path d="M2550 3789 c0 -5 5 -7 10 -4 6 3 10 8 10 11 0 2 -4 4 -10 4 -5 0 -10
-5 -10 -11z"/>
<path d="M3895 2349 c-4 -6 -5 -12 -2 -15 2 -3 7 2 10 11 7 17 1 20 -8 4z"/>
<path d="M3940 2324 c0 -8 5 -12 10 -9 6 3 10 10 10 16 0 5 -4 9 -10 9 -5 0
-10 -7 -10 -16z"/>
<path d="M4190 1910 c0 -5 5 -12 11 -16 8 -4 7 -9 -2 -15 -7 -4 -10 -11 -6
-16 9 -8 27 14 27 33 0 7 -7 14 -15 18 -8 3 -15 1 -15 -4z"/>
<path d="M3839 2126 c-1 -3 -2 -18 -3 -33 -1 -16 -5 -33 -9 -39 -11 -19 18
-37 32 -20 7 9 8 17 2 20 -14 9 -6 41 11 40 8 -1 15 5 15 12 0 7 -4 11 -9 8
-5 -3 -15 0 -23 6 -8 7 -16 10 -16 6z m16 -15 c3 -5 2 -12 -3 -15 -5 -3 -9 1
-9 9 0 17 3 19 12 6z m-1 -72 c-3 -5 -10 -7 -15 -3 -5 3 -7 10 -3 15 3 5 10 7
15 3 5 -3 7 -10 3 -15z"/>
<path d="M1320 1700 c0 -13 18 -22 24 -11 3 5 -1 11 -9 15 -8 3 -15 1 -15 -4z"/>
<path d="M1336 1651 c-4 -7 -5 -15 -2 -18 9 -9 19 4 14 18 -4 11 -6 11 -12 0z"/>
<path d="M1355 1559 c-19 -7 -19 -8 2 -8 12 -1 23 -6 25 -13 3 -8 6 -9 11 -1
10 16 -15 32 -38 22z"/>
<path d="M1375 1459 c-4 -6 -5 -12 -2 -15 2 -3 7 2 10 11 7 17 1 20 -8 4z"/>
<path d="M3794 1969 c-8 -14 14 -19 25 -6 8 10 7 14 -5 14 -8 0 -17 -4 -20 -8z"/>
<path d="M3719 1914 c-8 -10 -9 -15 -3 -11 14 8 38 -18 30 -32 -4 -5 -16 -8
-27 -6 -18 4 -19 2 -8 -11 12 -14 16 -13 36 11 13 14 21 31 18 36 -4 5 1 9 10
9 9 0 13 5 10 10 -5 8 -11 8 -19 1 -9 -7 -16 -7 -23 0 -7 7 -14 4 -24 -7z m32
-11 c13 -16 12 -17 -3 -4 -10 7 -18 15 -18 17 0 8 8 3 21 -13z"/>
<path d="M3655 1909 c-3 -4 2 -6 10 -5 21 3 28 13 10 13 -9 0 -18 -4 -20 -8z"/>
<path d="M3686 1808 c3 -5 10 -6 15 -3 13 9 11 12 -6 12 -8 0 -12 -4 -9 -9z"/>
<path d="M1735 769 c-4 -6 -5 -12 -2 -15 2 -3 7 2 10 11 7 17 1 20 -8 4z"/>
<path d="M1860 1320 c0 -5 5 -10 11 -10 5 0 7 5 4 10 -3 6 -8 10 -11 10 -2 0
-4 -4 -4 -10z"/>
<path d="M4115 1120 c-3 -5 -1 -10 4 -10 6 0 11 5 11 10 0 6 -2 10 -4 10 -3 0
-8 -4 -11 -10z"/>
<path d="M667 484 c-3 -3 1 -13 9 -21 8 -9 18 -12 21 -9 4 4 0 13 -8 21 -8 9
-18 13 -22 9z"/>
<path d="M3590 4633 c5 -2 8 -9 4 -14 -3 -5 0 -9 6 -9 15 0 7 23 -8 26 -7 1
-8 0 -2 -3z"/>
<path d="M3629 4543 c6 -12 11 -33 11 -47 0 -29 9 -56 20 -56 11 0 -14 98 -29
112 -11 11 -12 9 -2 -9z"/>
<path d="M3217 4479 c7 -7 15 -10 18 -7 3 3 -2 9 -12 12 -14 6 -15 5 -6 -5z"/>
<path d="M3115 4453 c-27 -9 -59 -19 -70 -23 -11 -5 -28 -11 -37 -14 -23 -7
-51 -52 -44 -71 7 -19 26 -19 26 0 0 16 16 21 22 6 3 -9 89 29 153 68 20 11
48 17 82 17 52 -1 52 -1 31 16 -13 10 -25 13 -29 7 -3 -5 -12 -8 -20 -5 -40
13 -69 12 -114 -1z"/>
<path d="M2922 4350 c0 -14 2 -19 5 -12 2 6 2 18 0 25 -3 6 -5 1 -5 -13z"/>
<path d="M3230 4320 c12 -8 5 -10 -30 -9 -88 2 -130 -1 -130 -11 0 -5 -18 -26
-41 -47 -31 -30 -41 -47 -44 -76 -3 -28 0 -37 9 -34 9 4 11 -2 8 -19 -4 -22
-1 -24 34 -25 l39 -1 -34 -15 -35 -15 42 -18 c23 -11 57 -20 75 -21 63 -5 117
1 117 12 0 6 -9 9 -20 6 -11 -3 -20 -1 -20 4 0 5 -6 9 -14 9 -8 0 -13 7 -12
16 0 11 -7 18 -21 19 -36 3 -40 15 -6 15 33 0 46 11 58 49 5 15 3 26 -6 32
-11 6 -10 9 4 15 19 7 108 -34 114 -53 3 -7 -14 -17 -36 -24 -23 -7 -41 -16
-41 -20 0 -4 15 -2 33 5 68 27 97 41 97 46 0 11 -146 80 -182 86 -45 7 -49 19
-10 27 54 11 150 -21 194 -65 18 -18 20 -18 15 -4 -12 30 -51 75 -72 82 -11 3
-27 12 -35 19 -8 7 -26 16 -40 19 -20 6 -22 5 -10 -4z m-151 -180 c11 -24 11
-24 -3 -6 -9 11 -16 24 -16 30 0 12 5 7 19 -24z m35 15 c3 -8 1 -15 -4 -15 -6
0 -10 7 -10 15 0 8 2 15 4 15 2 0 6 -7 10 -15z"/>
<path d="M3735 4180 c3 -5 8 -10 11 -10 2 0 4 5 4 10 0 6 -5 10 -11 10 -5 0
-7 -4 -4 -10z"/>
<path d="M3886 4091 c-3 -5 -2 -21 4 -36 5 -14 10 -55 10 -90 0 -35 4 -66 9
-70 13 -7 23 67 19 140 -2 46 -7 61 -20 63 -9 2 -19 -1 -22 -7z"/>
<path d="M3741 4054 c0 -11 3 -14 6 -6 3 7 2 16 -1 19 -3 4 -6 -2 -5 -13z"/>
<path d="M2912 3718 c-8 -10 1 -12 44 -10 30 2 52 8 48 13 -8 14 -80 11 -92
-3z"/>
<path d="M2940 3635 c0 -8 -6 -12 -13 -9 -17 6 -52 -32 -38 -40 7 -5 7 -13 -1
-26 -7 -10 -16 -16 -22 -13 -5 4 -7 -1 -3 -11 4 -10 7 -22 7 -27 0 -5 4 -9 10
-9 5 0 7 7 3 16 -5 13 -2 15 18 8 26 -8 57 -9 101 -1 15 2 25 1 23 -4 -3 -4
-1 -10 5 -14 12 -7 30 35 30 70 0 28 -20 75 -31 75 -4 0 -10 -10 -12 -22 l-4
-23 -2 23 c0 13 -7 22 -17 22 -8 0 -12 -4 -9 -10 3 -5 1 -10 -4 -10 -6 0 -11
5 -11 10 0 6 -7 10 -15 10 -8 0 -15 -7 -15 -15z"/>
<path d="M3060 3524 c0 -8 5 -12 10 -9 6 4 8 11 5 16 -9 14 -15 11 -15 -7z"/>
<path d="M2850 3195 c-8 -9 -8 -15 -2 -15 12 0 26 19 19 26 -2 2 -10 -2 -17
-11z"/>
<path d="M3596 3132 c-22 -27 -24 -32 -7 -17 20 17 47 55 39 55 -2 0 -16 -17
-32 -38z"/>
<path d="M2793 3015 c-8 -9 -9 -16 -3 -20 6 -3 13 1 16 10 9 21 2 26 -13 10z"/>
<path d="M3310 2859 c0 -5 5 -7 10 -4 6 3 10 8 10 11 0 2 -4 4 -10 4 -5 0 -10
-5 -10 -11z"/>
<path d="M4000 2664 c0 -5 7 -18 15 -28 8 -11 15 -16 15 -10 0 5 -7 18 -15 28
-8 11 -15 16 -15 10z"/>
<path d="M3060 2630 c-12 -8 -11 -10 8 -10 12 0 22 5 22 10 0 13 -11 13 -30 0z"/>
<path d="M4690 2530 c-13 -8 -13 -10 2 -10 9 0 20 5 23 10 8 13 -5 13 -25 0z"/>
<path d="M4952 2404 c10 -10 20 -15 24 -12 3 4 -5 12 -18 18 -22 12 -22 12 -6
-6z"/>
<path d="M5008 2393 c0 -10 -1 -26 0 -35 1 -10 -3 -18 -8 -18 -12 0 -30 -42
-36 -80 -9 -53 -5 -182 6 -237 11 -49 14 -55 25 -40 7 9 11 33 9 52 -1 19 1
35 4 35 4 0 8 17 9 38 1 20 2 45 3 55 1 9 6 17 11 17 6 0 9 6 6 13 -6 17 12
49 24 42 5 -4 9 -1 9 4 0 6 -7 11 -16 11 -8 0 -12 5 -9 10 4 6 11 8 16 4 6 -3
10 0 8 7 -1 8 -1 21 0 29 1 13 2 13 11 0 8 -13 10 -13 10 1 0 9 -7 20 -16 23
-12 4 -15 15 -12 36 3 16 3 28 0 25 -2 -2 -11 2 -19 10 -19 20 -33 19 -35 -2z"/>
<path d="M2906 2341 c-3 -5 1 -11 9 -15 9 -3 15 0 15 9 0 16 -16 20 -24 6z"/>
<path d="M4003 2320 c-1 -11 2 -20 5 -20 4 0 8 9 9 20 1 11 -2 20 -5 20 -4 0
-8 -9 -9 -20z"/>
<path d="M3960 2131 c0 -5 5 -13 10 -16 6 -3 10 -2 10 4 0 5 -4 13 -10 16 -5
3 -10 2 -10 -4z"/>
<path d="M3950 2100 c0 -5 5 -10 11 -10 5 0 7 5 4 10 -3 6 -8 10 -11 10 -2 0
-4 -4 -4 -10z"/>
<path d="M3925 2050 c3 -5 8 -10 11 -10 2 0 4 5 4 10 0 6 -5 10 -11 10 -5 0
-7 -4 -4 -10z"/>
<path d="M5380 1930 c0 -5 5 -10 10 -10 6 0 10 5 10 10 0 6 -4 10 -10 10 -5 0
-10 -4 -10 -10z"/>
<path d="M4025 1901 c-3 -5 -1 -12 5 -16 5 -3 10 1 10 9 0 18 -6 21 -15 7z"/>
<path d="M4010 1855 c-7 -9 -11 -17 -9 -20 3 -2 10 5 17 15 14 24 10 26 -8 5z"/>
<path d="M3987 1790 c-3 -11 -1 -20 4 -20 5 0 9 9 9 20 0 11 -2 20 -4 20 -2 0
-6 -9 -9 -20z"/>
<path d="M3510 1651 c0 -6 4 -13 10 -16 6 -3 7 1 4 9 -7 18 -14 21 -14 7z"/>
<path d="M5615 1350 c3 -5 8 -10 11 -10 2 0 4 5 4 10 0 6 -5 10 -11 10 -5 0
-7 -4 -4 -10z"/>
<path d="M1055 1320 c-3 -6 1 -7 9 -4 18 7 21 14 7 14 -6 0 -13 -4 -16 -10z"/>
<path d="M1120 1176 c0 -2 8 -10 18 -17 15 -13 16 -12 3 4 -13 16 -21 21 -21
13z"/>
<path d="M3831 1154 c0 -11 3 -14 6 -6 3 7 2 16 -1 19 -3 4 -6 -2 -5 -13z"/>
<path d="M3760 950 c0 -5 5 -10 10 -10 6 0 10 5 10 10 0 6 -4 10 -10 10 -5 0
-10 -4 -10 -10z"/>
<path d="M5889 868 c-1 -7 -1 -16 0 -20 0 -5 -7 -8 -16 -8 -17 -1 -17 -1 0
-11 18 -10 18 -12 0 -32 -10 -12 -14 -19 -9 -15 5 4 15 0 22 -10 12 -15 13 -8
14 46 0 34 -2 62 -5 62 -3 0 -6 -6 -6 -12z"/>
<path d="M1086 822 c-3 -9 -9 -23 -12 -30 -4 -8 0 -10 9 -6 17 6 29 41 17 49
-4 3 -10 -3 -14 -13z"/>
<path d="M1073 735 c11 -22 30 -31 28 -12 -1 4 -1 14 -1 22 0 8 -9 15 -19 15
-17 0 -18 -3 -8 -25z"/>
<path d="M3711 716 c-10 -12 -8 -13 8 -9 12 3 18 9 15 14 -7 12 -10 11 -23 -5z"/>
<path d="M3642 620 c0 -14 2 -19 5 -12 2 6 2 18 0 25 -3 6 -5 1 -5 -13z"/>
<path d="M1250 500 c0 -5 5 -10 11 -10 5 0 7 5 4 10 -3 6 -8 10 -11 10 -2 0
-4 -4 -4 -10z"/>
<path d="M926 471 c-4 -7 -5 -15 -2 -18 9 -9 19 4 14 18 -4 11 -6 11 -12 0z"/>
<path d="M1140 466 c0 -2 8 -10 18 -17 15 -13 16 -12 3 4 -13 16 -21 21 -21
13z"/>
<path d="M960 456 c0 -2 7 -6 15 -10 8 -3 15 -1 15 4 0 6 -7 10 -15 10 -8 0
-15 -2 -15 -4z"/>
<path d="M1050 404 c0 -8 5 -12 10 -9 6 4 8 11 5 16 -9 14 -15 11 -15 -7z"/>
<path d="M3640 411 c0 -5 9 -11 21 -14 16 -4 18 -3 8 9 -13 16 -29 19 -29 5z"/>
<path d="M3666 365 c4 -8 8 -15 10 -15 2 0 4 7 4 15 0 8 -4 15 -10 15 -5 0 -7
-7 -4 -15z"/>
<path d="M2535 320 c-3 -5 -1 -10 4 -10 6 0 11 5 11 10 0 6 -2 10 -4 10 -3 0
-8 -4 -11 -10z"/>
</g>
</svg>
